<?xml version="1.0" standalone="no"?>
 <!DOCTYPE svg PUBLIC "-//W3C//DTD SVG 1.1//EN" 
 "http://www.w3.org/Graphics/SVG/1.1/DTD/svg11.dtd"> 
<svg xmlns="http://www.w3.org/2000/svg" version="1.1" 
    width="29.7002cm" height="21.0007cm" viewBox="0 0 116930 82680 ">
<title>SVG Picture created as kontroler-B.Cu.svg date 2016/08/30 11:19:36 </title>
  <desc>Picture generated by PCBNEW </desc>
<g style="fill:#000000; fill-opacity:1;stroke:#000000; stroke-opacity:1;
stroke-linecap:round; stroke-linejoin:round; "
 transform="translate(0 0) scale(1 1)">
</g>
<g style="fill:#000000; fill-opacity:0.0; 
stroke:#000000; stroke-width:-0.000393701; stroke-opacity:1; 
stroke-linecap:round; stroke-linejoin:round;">
</g>
<g style="fill:#000000; fill-opacity:0.0; 
stroke:#000000; stroke-width:59.0551; stroke-opacity:1; 
stroke-linecap:round; stroke-linejoin:round;">
<path d="M62204 36220
L62204 46456
" />
<path d="M70472 46456
L69685 46456
" />
<path d="M70472 36220
L70472 46456
" />
<path d="M69685 36220
L70472 36220
" />
<path d="M69685 36220
L61417 36220
" />
<path d="M70472 46456
L70472 36220
" />
<path d="M61417 46456
L69685 46456
" />
</g>
<g style="fill:#000000; fill-opacity:0.0; 
stroke:#000000; stroke-width:236.22; stroke-opacity:1; 
stroke-linecap:round; stroke-linejoin:round;">
<path d="M48472 45378
L48472 43410
L48003 43410
L47722 43503
L47534 43691
L47440 43878
L47347 44253
L47347 44535
L47440 44910
L47534 45097
L47722 45284
L48003 45378
L48472 45378
" />
<path d="M46222 45378
L46409 45284
L46503 45191
L46597 45003
L46597 44441
L46503 44253
L46409 44160
L46222 44066
L45941 44066
L45753 44160
L45659 44253
L45566 44441
L45566 45003
L45659 45191
L45753 45284
L45941 45378
L46222 45378
" />
<path d="M44722 45378
L44722 44066
" />
<path d="M44722 44253
L44628 44160
L44441 44066
L44160 44066
L43972 44160
L43878 44347
L43878 45378
" />
<path d="M43878 44347
L43785 44160
L43597 44066
L43316 44066
L43128 44160
L43035 44347
L43035 45378
" />
<path d="M41347 45284
L41535 45378
L41910 45378
L42097 45284
L42191 45097
L42191 44347
L42097 44160
L41910 44066
L41535 44066
L41347 44160
L41254 44347
L41254 44535
L42191 44722
" />
<path d="M40410 44066
L40410 45378
" />
<path d="M40410 44253
L40316 44160
L40129 44066
L39848 44066
L39660 44160
L39566 44347
L39566 45378
" />
<path d="M37129 45378
L37129 43410
" />
<path d="M36192 44066
L36192 46034
" />
<path d="M36192 44160
L36004 44066
L35629 44066
L35442 44160
L35348 44253
L35254 44441
L35254 45003
L35348 45191
L35442 45284
L35629 45378
L36004 45378
L36192 45284
" />
<path d="M33567 45378
L33567 44347
L33661 44160
L33848 44066
L34223 44066
L34411 44160
" />
<path d="M33567 45284
L33755 45378
L34223 45378
L34411 45284
L34505 45097
L34505 44910
L34411 44722
L34223 44628
L33755 44628
L33567 44535
" />
<path d="M32817 44066
L32349 45378
L31880 44066
" />
<path d="M30380 45284
L30568 45378
L30943 45378
L31130 45284
L31224 45097
L31224 44347
L31130 44160
L30943 44066
L30568 44066
L30380 44160
L30286 44347
L30286 44535
L31224 44722
" />
<path d="M28599 45284
L28787 45378
L29161 45378
L29349 45284
L29443 45191
L29536 45003
L29536 44441
L29443 44253
L29349 44160
L29161 44066
L28787 44066
L28599 44160
" />
</g>
<g style="fill:#000000; fill-opacity:0.0; 
stroke:#000000; stroke-width:59.0551; stroke-opacity:1; 
stroke-linecap:round; stroke-linejoin:round;">
<path d="M12598 15748
L12598 46456
" />
<path d="M61417 15748
L12598 15748
" />
<path d="M61417 46456
L61417 15748
" />
<path d="M12598 46456
L61417 46456
" />
</g>
<g style="fill:#000000; fill-opacity:1.0; 
stroke:#000000; stroke-width:0; stroke-opacity:1; 
stroke-linecap:round; stroke-linejoin:round;">
<circle cx="57000" cy="37500" r="393.701" /> 
</g>
<g style="fill:#000000; fill-opacity:1.0; 
stroke:#000000; stroke-width:39.3701; stroke-opacity:1; 
stroke-linecap:round; stroke-linejoin:round;">
</g>
<g style="fill:#000000; fill-opacity:1.0; 
stroke:#000000; stroke-width:0; stroke-opacity:1; 
stroke-linecap:round; stroke-linejoin:round;">
<circle cx="48000" cy="37500" r="393.701" /> 
</g>
<g style="fill:#000000; fill-opacity:1.0; 
stroke:#000000; stroke-width:39.3701; stroke-opacity:1; 
stroke-linecap:round; stroke-linejoin:round;">
</g>
<g style="fill:#000000; fill-opacity:1.0; 
stroke:#000000; stroke-width:0; stroke-opacity:1; 
stroke-linecap:round; stroke-linejoin:round;">
<circle cx="46250" cy="32750" r="787.402" /> 
</g>
<g style="fill:#000000; fill-opacity:1.0; 
stroke:#000000; stroke-width:39.3701; stroke-opacity:1; 
stroke-linecap:round; stroke-linejoin:round;">
</g>
<g style="fill:#000000; fill-opacity:1.0; 
stroke:#000000; stroke-width:0; stroke-opacity:1; 
stroke-linecap:round; stroke-linejoin:round;">
<circle cx="17750" cy="32750" r="787.402" /> 
</g>
<g style="fill:#000000; fill-opacity:1.0; 
stroke:#000000; stroke-width:39.3701; stroke-opacity:1; 
stroke-linecap:round; stroke-linejoin:round;">
</g>
<g style="fill:#000000; fill-opacity:1.0; 
stroke:#000000; stroke-width:0; stroke-opacity:1; 
stroke-linecap:round; stroke-linejoin:round;">
<circle cx="17750" cy="25000" r="787.402" /> 
</g>
<g style="fill:#000000; fill-opacity:1.0; 
stroke:#000000; stroke-width:39.3701; stroke-opacity:1; 
stroke-linecap:round; stroke-linejoin:round;">
</g>
<g style="fill:#000000; fill-opacity:1.0; 
stroke:#000000; stroke-width:0; stroke-opacity:1; 
stroke-linecap:round; stroke-linejoin:round;">
<circle cx="46250" cy="25000" r="787.402" /> 
</g>
<g style="fill:#000000; fill-opacity:1.0; 
stroke:#000000; stroke-width:39.3701; stroke-opacity:1; 
stroke-linecap:round; stroke-linejoin:round;">
</g>
<g style="fill:#000000; fill-opacity:1.0; 
stroke:#000000; stroke-width:0; stroke-opacity:1; 
stroke-linecap:round; stroke-linejoin:round;">
<polyline style="fill-rule:evenodd;"
points="42496,27787
42003,27787
42003,27196
42496,27196
42496,27787
" /> 
<polyline style="fill-rule:evenodd;"
points="42496,26803
42003,26803
42003,26212
42496,26212
42496,26803
" /> 
<polyline style="fill-rule:evenodd;"
points="39462,24746
39462,24253
40053,24253
40053,24746
39462,24746
" /> 
<polyline style="fill-rule:evenodd;"
points="40446,24746
40446,24253
41037,24253
41037,24746
40446,24746
" /> 
<circle cx="49878" cy="31500" r="255.906" /> 
</g>
<g style="fill:#000000; fill-opacity:1.0; 
stroke:#000000; stroke-width:39.3701; stroke-opacity:1; 
stroke-linecap:round; stroke-linejoin:round;">
</g>
<g style="fill:#000000; fill-opacity:1.0; 
stroke:#000000; stroke-width:0; stroke-opacity:1; 
stroke-linecap:round; stroke-linejoin:round;">
<polyline style="fill-rule:evenodd;"
points="48244,31755
48244,31244
48755,31244
48755,31755
48244,31755
" /> 
<polyline style="fill-rule:evenodd;"
points="33647,25860
33352,25860
33352,25387
33647,25387
33647,25860
" /> 
<polyline style="fill-rule:evenodd;"
points="33647,25112
33352,25112
33352,24639
33647,24639
33647,25112
" /> 
<circle cx="52122" cy="30500" r="255.906" /> 
</g>
<g style="fill:#000000; fill-opacity:1.0; 
stroke:#000000; stroke-width:39.3701; stroke-opacity:1; 
stroke-linecap:round; stroke-linejoin:round;">
</g>
<g style="fill:#000000; fill-opacity:1.0; 
stroke:#000000; stroke-width:0; stroke-opacity:1; 
stroke-linecap:round; stroke-linejoin:round;">
<polyline style="fill-rule:evenodd;"
points="53755,30244
53755,30755
53244,30755
53244,30244
53755,30244
" /> 
<polyline style="fill-rule:evenodd;"
points="32860,31102
32860,31397
32387,31397
32387,31102
32860,31102
" /> 
<polyline style="fill-rule:evenodd;"
points="32112,31102
32112,31397
31639,31397
31639,31102
32112,31102
" /> 
<polyline style="fill-rule:evenodd;"
points="37755,31326
37244,31326
37244,30736
37755,30736
37755,31326
" /> 
<polyline style="fill-rule:evenodd;"
points="37755,30263
37244,30263
37244,29673
37755,29673
37755,30263
" /> 
<polyline style="fill-rule:evenodd;"
points="38755,31326
38244,31326
38244,30736
38755,30736
38755,31326
" /> 
<polyline style="fill-rule:evenodd;"
points="38755,30263
38244,30263
38244,29673
38755,29673
38755,30263
" /> 
<polyline style="fill-rule:evenodd;"
points="53327,35854
53327,35145
54705,35145
54705,35854
53327,35854
" /> 
<polyline style="fill-rule:evenodd;"
points="55295,35854
55295,35145
56673,35145
56673,35854
55295,35854
" /> 
<polyline style="fill-rule:evenodd;"
points="53322,31759
53322,32240
52964,32240
52964,31759
53322,31759
" /> 
<polyline style="fill-rule:evenodd;"
points="52035,31759
52035,32240
51677,32240
51677,31759
52035,31759
" /> 
<polyline style="fill-rule:evenodd;"
points="32325,26150
32775,26150
32775,26350
32325,26350
32325,26150
" /> 
<polyline style="fill-rule:evenodd;"
points="32325,26650
32775,26650
32775,26850
32325,26850
32325,26650
" /> 
<polyline style="fill-rule:evenodd;"
points="32325,27150
32775,27150
32775,27350
32325,27350
32325,27150
" /> 
<polyline style="fill-rule:evenodd;"
points="32325,27650
32775,27650
32775,27850
32325,27850
32325,27650
" /> 
<polyline style="fill-rule:evenodd;"
points="32325,28150
32775,28150
32775,28350
32325,28350
32325,28150
" /> 
<polyline style="fill-rule:evenodd;"
points="32325,28650
32775,28650
32775,28850
32325,28850
32325,28650
" /> 
<polyline style="fill-rule:evenodd;"
points="32325,29150
32775,29150
32775,29350
32325,29350
32325,29150
" /> 
<polyline style="fill-rule:evenodd;"
points="29825,29150
30275,29150
30275,29350
29825,29350
29825,29150
" /> 
<polyline style="fill-rule:evenodd;"
points="29825,28650
30275,28650
30275,28850
29825,28850
29825,28650
" /> 
<polyline style="fill-rule:evenodd;"
points="29825,27650
30275,27650
30275,27850
29825,27850
29825,27650
" /> 
<polyline style="fill-rule:evenodd;"
points="29825,27150
30275,27150
30275,27350
29825,27350
29825,27150
" /> 
<polyline style="fill-rule:evenodd;"
points="29825,26650
30275,26650
30275,26850
29825,26850
29825,26650
" /> 
<polyline style="fill-rule:evenodd;"
points="29825,26150
30275,26150
30275,26350
29825,26350
29825,26150
" /> 
<polyline style="fill-rule:evenodd;"
points="29825,28150
30275,28150
30275,28350
29825,28350
29825,28150
" /> 
<polyline style="fill-rule:evenodd;"
points="56984,29531
56984,33468
55015,33468
55015,29531
56984,29531
" /> 
<polyline style="fill-rule:evenodd;"
points="56968,22984
53031,22984
53031,21015
56968,21015
56968,22984
" /> 
<polyline style="fill-rule:evenodd;"
points="56968,25484
53031,25484
53031,23515
56968,23515
56968,25484
" /> 
<polyline style="fill-rule:evenodd;"
points="56968,27984
53031,27984
53031,26015
56968,26015
56968,27984
" /> 
<polyline style="fill-rule:evenodd;"
points="44280,31700
44280,30900
45720,30900
45720,31700
44280,31700
" /> 
<polyline style="fill-rule:evenodd;"
points="44800,29100
44800,28300
45200,28300
45200,29100
44800,29100
" /> 
<polyline style="fill-rule:evenodd;"
points="45700,29100
45700,28300
46100,28300
46100,29100
45700,29100
" /> 
<polyline style="fill-rule:evenodd;"
points="43900,29100
43900,28300
44300,28300
44300,29100
43900,29100
" /> 
<polyline style="fill-rule:evenodd;"
points="40531,30736
40531,31445
40216,31445
40216,30736
40531,30736
" /> 
<polyline style="fill-rule:evenodd;"
points="39783,30736
39783,31445
39468,31445
39468,30736
39783,30736
" /> 
<polyline style="fill-rule:evenodd;"
points="40157,29554
40157,30263
39842,30263
39842,29554
40157,29554
" /> 
</g>
<g style="fill:#000000; fill-opacity:1.0; 
stroke:#000000; stroke-width:240; stroke-opacity:1; 
stroke-linecap:round; stroke-linejoin:round;">
</g>
<g style="fill:#000000; fill-opacity:0.0; 
stroke:#000000; stroke-width:240; stroke-opacity:1; 
stroke-linecap:round; stroke-linejoin:round;">
<path d="M50250 34730
L50250 35070
" />
<path d="M50750 34730
L50750 35070
" />
<path d="M51250 34730
L51250 35070
" />
<path d="M51750 34730
L51750 35070
" />
<path d="M51750 36930
L51750 37270
" />
<path d="M51250 36930
L51250 37270
" />
<path d="M50750 36930
L50750 37270
" />
<path d="M50250 36930
L50250 37270
" />
</g>
<g style="fill:#000000; fill-opacity:0.0; 
stroke:#000000; stroke-width:0; stroke-opacity:1; 
stroke-linecap:round; stroke-linejoin:round;">
</g>
<g style="fill:#000000; fill-opacity:1.0; 
stroke:#000000; stroke-width:0; stroke-opacity:1; 
stroke-linecap:round; stroke-linejoin:round;">
<polyline style="fill-rule:evenodd;"
points="52200,22220
51400,22220
51400,20780
52200,20780
52200,22220
" /> 
<polyline style="fill-rule:evenodd;"
points="49600,21700
48800,21700
48800,21300
49600,21300
49600,21700
" /> 
<polyline style="fill-rule:evenodd;"
points="49600,20800
48800,20800
48800,20400
49600,20400
49600,20800
" /> 
<polyline style="fill-rule:evenodd;"
points="49600,22600
48800,22600
48800,22200
49600,22200
49600,22600
" /> 
<polyline style="fill-rule:evenodd;"
points="52200,25220
51400,25220
51400,23780
52200,23780
52200,25220
" /> 
<polyline style="fill-rule:evenodd;"
points="49600,24700
48800,24700
48800,24300
49600,24300
49600,24700
" /> 
<polyline style="fill-rule:evenodd;"
points="49600,23800
48800,23800
48800,23400
49600,23400
49600,23800
" /> 
<polyline style="fill-rule:evenodd;"
points="49600,25600
48800,25600
48800,25200
49600,25200
49600,25600
" /> 
<polyline style="fill-rule:evenodd;"
points="52200,28220
51400,28220
51400,26780
52200,26780
52200,28220
" /> 
<polyline style="fill-rule:evenodd;"
points="49600,27700
48800,27700
48800,27300
49600,27300
49600,27700
" /> 
<polyline style="fill-rule:evenodd;"
points="49600,26800
48800,26800
48800,26400
49600,26400
49600,26800
" /> 
<polyline style="fill-rule:evenodd;"
points="49600,28600
48800,28600
48800,28200
49600,28200
49600,28600
" /> 
<polyline style="fill-rule:evenodd;"
points="42744,29673
43255,29673
43255,30263
42744,30263
42744,29673
" /> 
<polyline style="fill-rule:evenodd;"
points="42744,30736
43255,30736
43255,31326
42744,31326
42744,30736
" /> 
<polyline style="fill-rule:evenodd;"
points="36765,28153
36403,28515
35986,28097
36347,27736
36765,28153
" /> 
<polyline style="fill-rule:evenodd;"
points="36013,27402
35652,27763
35234,27346
35596,26984
36013,27402
" /> 
<polyline style="fill-rule:evenodd;"
points="34755,26326
34244,26326
34244,25736
34755,25736
34755,26326
" /> 
<polyline style="fill-rule:evenodd;"
points="34755,25263
34244,25263
34244,24673
34755,24673
34755,25263
" /> 
<polyline style="fill-rule:evenodd;"
points="41244,29673
41755,29673
41755,30263
41244,30263
41244,29673
" /> 
<polyline style="fill-rule:evenodd;"
points="41244,30736
41755,30736
41755,31326
41244,31326
41244,30736
" /> 
<polyline style="fill-rule:evenodd;"
points="35765,33403
35403,33765
34986,33347
35347,32986
35765,33403
" /> 
<polyline style="fill-rule:evenodd;"
points="35013,32652
34652,33013
34234,32596
34596,32234
35013,32652
" /> 
<polyline style="fill-rule:evenodd;"
points="33326,31994
33326,32505
32736,32505
32736,31994
33326,31994
" /> 
<polyline style="fill-rule:evenodd;"
points="32263,31994
32263,32505
31673,32505
31673,31994
32263,31994
" /> 
</g>
<g style="fill:#000000; fill-opacity:1.0; 
stroke:#000000; stroke-width:593; stroke-opacity:1; 
stroke-linecap:round; stroke-linejoin:round;">
</g>
<g style="fill:#000000; fill-opacity:0.0; 
stroke:#000000; stroke-width:593; stroke-opacity:1; 
stroke-linecap:round; stroke-linejoin:round;">
<path d="M43750 37953
L43750 38547
" />
<path d="M44750 37953
L44750 38547
" />
</g>
<g style="fill:#000000; fill-opacity:0.0; 
stroke:#000000; stroke-width:0; stroke-opacity:1; 
stroke-linecap:round; stroke-linejoin:round;">
</g>
<g style="fill:#000000; fill-opacity:1.0; 
stroke:#000000; stroke-width:0; stroke-opacity:1; 
stroke-linecap:round; stroke-linejoin:round;">
<polyline style="fill-rule:evenodd;"
points="38050,25780
38850,25780
38850,27220
38050,27220
38050,25780
" /> 
<polyline style="fill-rule:evenodd;"
points="40650,26300
41450,26300
41450,26700
40650,26700
40650,26300
" /> 
<polyline style="fill-rule:evenodd;"
points="40650,27200
41450,27200
41450,27600
40650,27600
40650,27200
" /> 
<polyline style="fill-rule:evenodd;"
points="40650,25400
41450,25400
41450,25800
40650,25800
40650,25400
" /> 
<circle cx="36750" cy="26500" r="590.551" /> 
</g>
<g style="fill:#000000; fill-opacity:1.0; 
stroke:#000000; stroke-width:39.3701; stroke-opacity:1; 
stroke-linecap:round; stroke-linejoin:round;">
</g>
<g style="fill:#000000; fill-opacity:1.0; 
stroke:#000000; stroke-width:0; stroke-opacity:1; 
stroke-linecap:round; stroke-linejoin:round;">
<circle cx="55500" cy="39000" r="590.551" /> 
</g>
<g style="fill:#000000; fill-opacity:1.0; 
stroke:#000000; stroke-width:39.3701; stroke-opacity:1; 
stroke-linecap:round; stroke-linejoin:round;">
</g>
<g style="fill:#000000; fill-opacity:1.0; 
stroke:#000000; stroke-width:0; stroke-opacity:1; 
stroke-linecap:round; stroke-linejoin:round;">
<circle cx="50500" cy="30000" r="590.551" /> 
</g>
<g style="fill:#000000; fill-opacity:1.0; 
stroke:#000000; stroke-width:39.3701; stroke-opacity:1; 
stroke-linecap:round; stroke-linejoin:round;">
</g>
<g style="fill:#000000; fill-opacity:1.0; 
stroke:#000000; stroke-width:0; stroke-opacity:1; 
stroke-linecap:round; stroke-linejoin:round;">
<circle cx="54000" cy="33500" r="590.551" /> 
</g>
<g style="fill:#000000; fill-opacity:1.0; 
stroke:#000000; stroke-width:39.3701; stroke-opacity:1; 
stroke-linecap:round; stroke-linejoin:round;">
</g>
<g style="fill:#000000; fill-opacity:1.0; 
stroke:#000000; stroke-width:0; stroke-opacity:1; 
stroke-linecap:round; stroke-linejoin:round;">
<circle cx="33750" cy="30500" r="590.551" /> 
</g>
<g style="fill:#000000; fill-opacity:1.0; 
stroke:#000000; stroke-width:39.3701; stroke-opacity:1; 
stroke-linecap:round; stroke-linejoin:round;">
</g>
<g style="fill:#000000; fill-opacity:1.0; 
stroke:#000000; stroke-width:0; stroke-opacity:1; 
stroke-linecap:round; stroke-linejoin:round;">
<polyline style="fill-rule:evenodd;"
points="35755,26326
35244,26326
35244,25736
35755,25736
35755,26326
" /> 
<polyline style="fill-rule:evenodd;"
points="35755,25263
35244,25263
35244,24673
35755,24673
35755,25263
" /> 
<circle cx="30000" cy="30250" r="300" /> 
</g>
<g style="fill:#000000; fill-opacity:1.0; 
stroke:#000000; stroke-width:39.3701; stroke-opacity:1; 
stroke-linecap:round; stroke-linejoin:round;">
</g>
<g style="fill:#000000; fill-opacity:1.0; 
stroke:#000000; stroke-width:0; stroke-opacity:1; 
stroke-linecap:round; stroke-linejoin:round;">
<circle cx="32500" cy="30250" r="300" /> 
</g>
<g style="fill:#000000; fill-opacity:1.0; 
stroke:#000000; stroke-width:39.3701; stroke-opacity:1; 
stroke-linecap:round; stroke-linejoin:round;">
</g>
<g style="fill:#000000; fill-opacity:1.0; 
stroke:#000000; stroke-width:0; stroke-opacity:1; 
stroke-linecap:round; stroke-linejoin:round;">
<circle cx="32500" cy="25250" r="300" /> 
</g>
<g style="fill:#000000; fill-opacity:1.0; 
stroke:#000000; stroke-width:39.3701; stroke-opacity:1; 
stroke-linecap:round; stroke-linejoin:round;">
</g>
<g style="fill:#000000; fill-opacity:1.0; 
stroke:#000000; stroke-width:0; stroke-opacity:1; 
stroke-linecap:round; stroke-linejoin:round;">
<circle cx="30000" cy="25250" r="300" /> 
</g>
<g style="fill:#000000; fill-opacity:1.0; 
stroke:#000000; stroke-width:39.3701; stroke-opacity:1; 
stroke-linecap:round; stroke-linejoin:round;">
</g>
<g style="fill:#000000; fill-opacity:1.0; 
stroke:#000000; stroke-width:0; stroke-opacity:1; 
stroke-linecap:round; stroke-linejoin:round;">
<circle cx="33750" cy="27750" r="300" /> 
</g>
<g style="fill:#000000; fill-opacity:1.0; 
stroke:#000000; stroke-width:39.3701; stroke-opacity:1; 
stroke-linecap:round; stroke-linejoin:round;">
</g>
<g style="fill:#000000; fill-opacity:1.0; 
stroke:#000000; stroke-width:0; stroke-opacity:1; 
stroke-linecap:round; stroke-linejoin:round;">
<circle cx="28750" cy="28750" r="300" /> 
</g>
<g style="fill:#000000; fill-opacity:1.0; 
stroke:#000000; stroke-width:39.3701; stroke-opacity:1; 
stroke-linecap:round; stroke-linejoin:round;">
</g>
<g style="fill:#000000; fill-opacity:1.0; 
stroke:#000000; stroke-width:0; stroke-opacity:1; 
stroke-linecap:round; stroke-linejoin:round;">
<polyline style="fill-rule:evenodd;"
points="64119,38195
63439,38195
63439,37395
64119,37395
64119,38195
" /> 
</g>
<g style="fill:#000000; fill-opacity:1.0; 
stroke:#000000; stroke-width:680; stroke-opacity:1; 
stroke-linecap:round; stroke-linejoin:round;">
</g>
<g style="fill:#000000; fill-opacity:0.0; 
stroke:#000000; stroke-width:680; stroke-opacity:1; 
stroke-linecap:round; stroke-linejoin:round;">
<path d="M64779 37855
L64779 37735
" />
<path d="M65779 37855
L65779 37735
" />
<path d="M66779 37855
L66779 37735
" />
<path d="M67779 37855
L67779 37735
" />
<path d="M68779 37855
L68779 37735
" />
</g>
<g style="fill:#000000; fill-opacity:1.0; 
stroke:#000000; stroke-width:0; stroke-opacity:1; 
stroke-linecap:round; stroke-linejoin:round;">
<circle cx="65285.4" cy="40019.7" r="300" /> 
</g>
<g style="fill:#000000; fill-opacity:1.0; 
stroke:#000000; stroke-width:39.3701; stroke-opacity:1; 
stroke-linecap:round; stroke-linejoin:round;">
</g>
<g style="fill:#000000; fill-opacity:1.0; 
stroke:#000000; stroke-width:0; stroke-opacity:1; 
stroke-linecap:round; stroke-linejoin:round;">
<circle cx="67785.4" cy="40019.7" r="300" /> 
</g>
<g style="fill:#000000; fill-opacity:1.0; 
stroke:#000000; stroke-width:39.3701; stroke-opacity:1; 
stroke-linecap:round; stroke-linejoin:round;">
</g>
<g style="fill:#000000; fill-opacity:1.0; 
stroke:#000000; stroke-width:0; stroke-opacity:1; 
stroke-linecap:round; stroke-linejoin:round;">
<circle cx="67785.4" cy="45019.7" r="300" /> 
</g>
<g style="fill:#000000; fill-opacity:1.0; 
stroke:#000000; stroke-width:39.3701; stroke-opacity:1; 
stroke-linecap:round; stroke-linejoin:round;">
</g>
<g style="fill:#000000; fill-opacity:1.0; 
stroke:#000000; stroke-width:0; stroke-opacity:1; 
stroke-linecap:round; stroke-linejoin:round;">
<circle cx="65285.4" cy="45019.7" r="300" /> 
</g>
<g style="fill:#000000; fill-opacity:1.0; 
stroke:#000000; stroke-width:39.3701; stroke-opacity:1; 
stroke-linecap:round; stroke-linejoin:round;">
</g>
<g style="fill:#000000; fill-opacity:1.0; 
stroke:#000000; stroke-width:0; stroke-opacity:1; 
stroke-linecap:round; stroke-linejoin:round;">
<circle cx="69035.4" cy="42519.7" r="300" /> 
</g>
<g style="fill:#000000; fill-opacity:1.0; 
stroke:#000000; stroke-width:39.3701; stroke-opacity:1; 
stroke-linecap:round; stroke-linejoin:round;">
</g>
<g style="fill:#000000; fill-opacity:1.0; 
stroke:#000000; stroke-width:0; stroke-opacity:1; 
stroke-linecap:round; stroke-linejoin:round;">
<circle cx="64035.4" cy="41519.7" r="300" /> 
</g>
<g style="fill:#000000; fill-opacity:1.0; 
stroke:#000000; stroke-width:39.3701; stroke-opacity:1; 
stroke-linecap:round; stroke-linejoin:round;">
</g>
<g style="fill:#000000; fill-opacity:1.0; 
stroke:#000000; stroke-width:0; stroke-opacity:1; 
stroke-linecap:round; stroke-linejoin:round;">
<circle cx="31000" cy="41000" r="275" /> 
</g>
<g style="fill:#000000; fill-opacity:1.0; 
stroke:#000000; stroke-width:39.3701; stroke-opacity:1; 
stroke-linecap:round; stroke-linejoin:round;">
</g>
<g style="fill:#000000; fill-opacity:1.0; 
stroke:#000000; stroke-width:0; stroke-opacity:1; 
stroke-linecap:round; stroke-linejoin:round;">
<circle cx="31000" cy="39000" r="275" /> 
</g>
<g style="fill:#000000; fill-opacity:1.0; 
stroke:#000000; stroke-width:39.3701; stroke-opacity:1; 
stroke-linecap:round; stroke-linejoin:round;">
</g>
<g style="fill:#000000; fill-opacity:1.0; 
stroke:#000000; stroke-width:0; stroke-opacity:1; 
stroke-linecap:round; stroke-linejoin:round;">
<circle cx="34000" cy="41000" r="275" /> 
</g>
<g style="fill:#000000; fill-opacity:1.0; 
stroke:#000000; stroke-width:39.3701; stroke-opacity:1; 
stroke-linecap:round; stroke-linejoin:round;">
</g>
<g style="fill:#000000; fill-opacity:1.0; 
stroke:#000000; stroke-width:0; stroke-opacity:1; 
stroke-linecap:round; stroke-linejoin:round;">
<circle cx="34000" cy="39000" r="275" /> 
</g>
<g style="fill:#000000; fill-opacity:1.0; 
stroke:#000000; stroke-width:39.3701; stroke-opacity:1; 
stroke-linecap:round; stroke-linejoin:round;">
</g>
<g style="fill:#000000; fill-opacity:1.0; 
stroke:#000000; stroke-width:0; stroke-opacity:1; 
stroke-linecap:round; stroke-linejoin:round;">
<circle cx="26500" cy="41000" r="275" /> 
</g>
<g style="fill:#000000; fill-opacity:1.0; 
stroke:#000000; stroke-width:39.3701; stroke-opacity:1; 
stroke-linecap:round; stroke-linejoin:round;">
</g>
<g style="fill:#000000; fill-opacity:1.0; 
stroke:#000000; stroke-width:0; stroke-opacity:1; 
stroke-linecap:round; stroke-linejoin:round;">
<circle cx="26500" cy="39000" r="275" /> 
</g>
<g style="fill:#000000; fill-opacity:1.0; 
stroke:#000000; stroke-width:39.3701; stroke-opacity:1; 
stroke-linecap:round; stroke-linejoin:round;">
</g>
<g style="fill:#000000; fill-opacity:1.0; 
stroke:#000000; stroke-width:0; stroke-opacity:1; 
stroke-linecap:round; stroke-linejoin:round;">
<circle cx="29500" cy="41000" r="275" /> 
</g>
<g style="fill:#000000; fill-opacity:1.0; 
stroke:#000000; stroke-width:39.3701; stroke-opacity:1; 
stroke-linecap:round; stroke-linejoin:round;">
</g>
<g style="fill:#000000; fill-opacity:1.0; 
stroke:#000000; stroke-width:0; stroke-opacity:1; 
stroke-linecap:round; stroke-linejoin:round;">
<circle cx="29500" cy="39000" r="275" /> 
</g>
<g style="fill:#000000; fill-opacity:1.0; 
stroke:#000000; stroke-width:39.3701; stroke-opacity:1; 
stroke-linecap:round; stroke-linejoin:round;">
</g>
<g style="fill:#000000; fill-opacity:1.0; 
stroke:#000000; stroke-width:0; stroke-opacity:1; 
stroke-linecap:round; stroke-linejoin:round;">
<circle cx="22000" cy="41000" r="275" /> 
</g>
<g style="fill:#000000; fill-opacity:1.0; 
stroke:#000000; stroke-width:39.3701; stroke-opacity:1; 
stroke-linecap:round; stroke-linejoin:round;">
</g>
<g style="fill:#000000; fill-opacity:1.0; 
stroke:#000000; stroke-width:0; stroke-opacity:1; 
stroke-linecap:round; stroke-linejoin:round;">
<circle cx="22000" cy="39000" r="275" /> 
</g>
<g style="fill:#000000; fill-opacity:1.0; 
stroke:#000000; stroke-width:39.3701; stroke-opacity:1; 
stroke-linecap:round; stroke-linejoin:round;">
</g>
<g style="fill:#000000; fill-opacity:1.0; 
stroke:#000000; stroke-width:0; stroke-opacity:1; 
stroke-linecap:round; stroke-linejoin:round;">
<circle cx="25000" cy="41000" r="275" /> 
</g>
<g style="fill:#000000; fill-opacity:1.0; 
stroke:#000000; stroke-width:39.3701; stroke-opacity:1; 
stroke-linecap:round; stroke-linejoin:round;">
</g>
<g style="fill:#000000; fill-opacity:1.0; 
stroke:#000000; stroke-width:0; stroke-opacity:1; 
stroke-linecap:round; stroke-linejoin:round;">
<circle cx="25000" cy="39000" r="275" /> 
</g>
<g style="fill:#000000; fill-opacity:1.0; 
stroke:#000000; stroke-width:39.3701; stroke-opacity:1; 
stroke-linecap:round; stroke-linejoin:round;">
</g>
<g style="fill:#000000; fill-opacity:1.0; 
stroke:#000000; stroke-width:0; stroke-opacity:1; 
stroke-linecap:round; stroke-linejoin:round;">
<circle cx="46500" cy="41000" r="295.276" /> 
</g>
<g style="fill:#000000; fill-opacity:1.0; 
stroke:#000000; stroke-width:39.3701; stroke-opacity:1; 
stroke-linecap:round; stroke-linejoin:round;">
</g>
<g style="fill:#000000; fill-opacity:1.0; 
stroke:#000000; stroke-width:0; stroke-opacity:1; 
stroke-linecap:round; stroke-linejoin:round;">
<circle cx="46500" cy="38250" r="295.276" /> 
</g>
<g style="fill:#000000; fill-opacity:1.0; 
stroke:#000000; stroke-width:39.3701; stroke-opacity:1; 
stroke-linecap:round; stroke-linejoin:round;">
</g>
<g style="fill:#000000; fill-opacity:1.0; 
stroke:#000000; stroke-width:250; stroke-opacity:1; 
stroke-linecap:round; stroke-linejoin:round;">
</g>
<g style="fill:#000000; fill-opacity:0.0; 
stroke:#000000; stroke-width:250; stroke-opacity:1; 
stroke-linecap:round; stroke-linejoin:round;">
<path d="M43000 31031
L43968 31031
" />
<path d="M44237 31300
L45000 31300
" />
<path d="M43968 31031
L44237 31300
" />
</g>
<g style="fill:#000000; fill-opacity:0.0; 
stroke:#000000; stroke-width:500; stroke-opacity:1; 
stroke-linecap:round; stroke-linejoin:round;">
<path d="M45000 31300
L45000 28700
" />
<path d="M46250 32750
L45750 32750
" />
<path d="M45750 32750
L45000 32000
" />
<path d="M45000 32000
L45000 31300
" />
</g>
<g style="fill:#000000; fill-opacity:0.0; 
stroke:#000000; stroke-width:1000; stroke-opacity:1; 
stroke-linecap:round; stroke-linejoin:round;">
<path d="M17750 32750
L17750 25000
" />
</g>
<g style="fill:#000000; fill-opacity:0.0; 
stroke:#000000; stroke-width:250; stroke-opacity:1; 
stroke-linecap:round; stroke-linejoin:round;">
<path d="M50750 34900
L50250 34900
" />
<path d="M51250 34900
L50750 34900
" />
<path d="M44750 38250
L46500 38250
" />
</g>
<g style="fill:#000000; fill-opacity:0.0; 
stroke:#000000; stroke-width:150; stroke-opacity:1; 
stroke-linecap:round; stroke-linejoin:round;">
<path d="M45900 28700
L45900 27900
" />
<path d="M45900 27900
L45500 27500
" />
<path d="M42500 27500
L42500 27492
" />
<path d="M45500 27500
L42500 27500
" />
<path d="M42250 27492
L42500 27492
" />
<path d="M42500 27492
L43242 27492
" />
<path d="M43242 27492
L43218 27468
" />
</g>
<g style="fill:#000000; fill-opacity:0.0; 
stroke:#000000; stroke-width:250; stroke-opacity:1; 
stroke-linecap:round; stroke-linejoin:round;">
<path d="M42273 27468
L42250 27492
" />
<path d="M41750 28500
L36750 28500
" />
<path d="M41750 28500
L42250 28000
" />
<path d="M42250 27492
L42250 28000
" />
<path d="M36750 28500
L36375 28125
" />
</g>
<g style="fill:#000000; fill-opacity:0.0; 
stroke:#000000; stroke-width:500; stroke-opacity:1; 
stroke-linecap:round; stroke-linejoin:round;">
<path d="M48500 31500
L47750 31500
" />
<path d="M46750 29550
L45900 28700
" />
<path d="M46750 30500
L46750 29550
" />
<path d="M47750 31500
L46750 30500
" />
<path d="M48000 37500
L48000 33000
" />
<path d="M48500 32500
L48500 31500
" />
<path d="M48000 33000
L48500 32500
" />
</g>
<g style="fill:#000000; fill-opacity:0.0; 
stroke:#000000; stroke-width:250; stroke-opacity:1; 
stroke-linecap:round; stroke-linejoin:round;">
<path d="M44250 27468
L43218 27468
" />
<path d="M43218 27468
L42273 27468
" />
<path d="M45900 27900
L45468 27468
" />
<path d="M45468 27468
L43000 27468
" />
</g>
<g style="fill:#000000; fill-opacity:0.0; 
stroke:#000000; stroke-width:150; stroke-opacity:1; 
stroke-linecap:round; stroke-linejoin:round;">
<path d="M42968 27500
L43000 27468
" />
<path d="M42257 27500
L42250 27492
" />
</g>
<g style="fill:#000000; fill-opacity:0.0; 
stroke:#000000; stroke-width:250; stroke-opacity:1; 
stroke-linecap:round; stroke-linejoin:round;">
<path d="M42250 27492
L41757 27492
" />
<path d="M41665 27400
L41050 27400
" />
<path d="M41757 27492
L41665 27400
" />
</g>
<g style="fill:#000000; fill-opacity:0.0; 
stroke:#000000; stroke-width:150; stroke-opacity:1; 
stroke-linecap:round; stroke-linejoin:round;">
<path d="M42273 27468
L42250 27492
" />
</g>
<g style="fill:#000000; fill-opacity:0.0; 
stroke:#000000; stroke-width:250; stroke-opacity:1; 
stroke-linecap:round; stroke-linejoin:round;">
<path d="M42273 27468
L42250 27492
" />
<path d="M36750 26500
L35500 26500
" />
<path d="M35500 26031
L35500 26500
" />
<path d="M35500 26500
L35500 27250
" />
<path d="M35500 27250
L35624 27374
" />
<path d="M34500 26031
L35500 26031
" />
</g>
<g style="fill:#000000; fill-opacity:0.0; 
stroke:#000000; stroke-width:150; stroke-opacity:1; 
stroke-linecap:round; stroke-linejoin:round;">
<path d="M32550 26750
L33781 26750
" />
<path d="M33781 26750
L34500 26031
" />
</g>
<g style="fill:#000000; fill-opacity:0.0; 
stroke:#000000; stroke-width:250; stroke-opacity:1; 
stroke-linecap:round; stroke-linejoin:round;">
<path d="M35375 33375
L42000 40000
" />
<path d="M42500 40000
L48250 40000
" />
<path d="M48250 40000
L49500 38750
" />
<path d="M52500 34000
L52500 35750
" />
<path d="M53000 30500
L53500 30500
" />
<path d="M52500 31000
L52500 33000
" />
<path d="M53000 30500
L52500 31000
" />
<path d="M52500 34000
L52500 33000
" />
<path d="M49500 36750
L49500 38750
" />
<path d="M50000 36250
L49500 36750
" />
<path d="M52000 36250
L50000 36250
" />
<path d="M52500 35750
L52000 36250
" />
<path d="M42000 40000
L42500 40000
" />
<path d="M53143 32000
L53500 32000
" />
</g>
<g style="fill:#000000; fill-opacity:0.0; 
stroke:#000000; stroke-width:500; stroke-opacity:1; 
stroke-linecap:round; stroke-linejoin:round;">
<path d="M53500 33500
L53500 32000
" />
<path d="M53500 32000
L53500 30500
" />
<path d="M53643 33356
L53500 33500
" />
<path d="M54016 35500
L54016 34016
" />
<path d="M54016 34016
L53500 33500
" />
<path d="M53500 30500
L55000 30500
" />
<path d="M55000 30500
L56000 31500
" />
</g>
<g style="fill:#000000; fill-opacity:0.0; 
stroke:#000000; stroke-width:150; stroke-opacity:1; 
stroke-linecap:round; stroke-linejoin:round;">
<path d="M32500 30250
L32750 30500
" />
<path d="M34000 30500
L32750 30500
" />
</g>
<g style="fill:#000000; fill-opacity:0.0; 
stroke:#000000; stroke-width:250; stroke-opacity:1; 
stroke-linecap:round; stroke-linejoin:round;">
<path d="M34000 30500
L32750 30500
" />
</g>
<g style="fill:#000000; fill-opacity:0.0; 
stroke:#000000; stroke-width:150; stroke-opacity:1; 
stroke-linecap:round; stroke-linejoin:round;">
<path d="M32500 30250
L32500 29300
" />
<path d="M32500 29300
L32550 29250
" />
</g>
<g style="fill:#000000; fill-opacity:0.0; 
stroke:#000000; stroke-width:250; stroke-opacity:1; 
stroke-linecap:round; stroke-linejoin:round;">
<path d="M32624 31250
L32624 30374
" />
<path d="M32624 30374
L32500 30250
" />
<path d="M33031 32250
L33031 31657
" />
<path d="M33031 31657
L32624 31250
" />
<path d="M34624 32624
L34250 32250
" />
<path d="M34250 32250
L33031 32250
" />
<path d="M43750 38250
L42750 38250
" />
<path d="M38000 33500
L38000 31031
" />
<path d="M42750 38250
L38000 33500
" />
<path d="M37500 31031
L38000 31031
" />
<path d="M38000 31031
L38500 31031
" />
</g>
<g style="fill:#000000; fill-opacity:0.0; 
stroke:#000000; stroke-width:150; stroke-opacity:1; 
stroke-linecap:round; stroke-linejoin:round;">
<path d="M32550 28250
L33350 28250
" />
</g>
<g style="fill:#000000; fill-opacity:0.0; 
stroke:#000000; stroke-width:250; stroke-opacity:1; 
stroke-linecap:round; stroke-linejoin:round;">
<path d="M35968 29968
L34500 28500
" />
<path d="M35968 29968
L37500 29968
" />
</g>
<g style="fill:#000000; fill-opacity:0.0; 
stroke:#000000; stroke-width:150; stroke-opacity:1; 
stroke-linecap:round; stroke-linejoin:round;">
<path d="M34300 28300
L34500 28500
" />
<path d="M33400 28300
L34300 28300
" />
<path d="M33350 28250
L33400 28300
" />
<path d="M42531 29968
L42000 30500
" />
</g>
<g style="fill:#000000; fill-opacity:0.0; 
stroke:#000000; stroke-width:250; stroke-opacity:1; 
stroke-linecap:round; stroke-linejoin:round;">
<path d="M43000 29968
L42531 29968
" />
<path d="M42531 29968
L42500 30000
" />
<path d="M43000 29968
L43531 29968
" />
<path d="M44100 29400
L44100 28700
" />
<path d="M43531 29968
L44100 29400
" />
<path d="M38500 29968
L39940 29968
" />
<path d="M39940 29968
L40000 29909
" />
<path d="M40000 29909
L40409 29909
" />
<path d="M40409 29909
L40500 30000
" />
</g>
<g style="fill:#000000; fill-opacity:0.0; 
stroke:#000000; stroke-width:150; stroke-opacity:1; 
stroke-linecap:round; stroke-linejoin:round;">
<path d="M42000 30500
L41000 30500
" />
<path d="M41000 30500
L40500 30000
" />
<path d="M40000 30000
L40000 29909
" />
</g>
<g style="fill:#000000; fill-opacity:0.0; 
stroke:#000000; stroke-width:500; stroke-opacity:1; 
stroke-linecap:round; stroke-linejoin:round;">
<path d="M50750 37100
L50250 37100
" />
</g>
<g style="fill:#000000; fill-opacity:0.0; 
stroke:#000000; stroke-width:250; stroke-opacity:1; 
stroke-linecap:round; stroke-linejoin:round;">
<path d="M56000 37500
L56000 38500
" />
<path d="M56000 38500
L55500 39000
" />
</g>
<g style="fill:#000000; fill-opacity:0.0; 
stroke:#000000; stroke-width:500; stroke-opacity:1; 
stroke-linecap:round; stroke-linejoin:round;">
<path d="M55984 35500
L55984 37500
" />
<path d="M55984 37500
L56000 37500
" />
<path d="M51250 37100
L50750 37100
" />
<path d="M51750 37100
L51250 37100
" />
<path d="M52250 37100
L51750 37100
" />
<path d="M57000 37500
L56000 37500
" />
<path d="M56000 37500
L54000 37500
" />
<path d="M53600 37100
L52250 37100
" />
<path d="M54000 37500
L53600 37100
" />
</g>
<g style="fill:#000000; fill-opacity:0.0; 
stroke:#000000; stroke-width:150; stroke-opacity:1; 
stroke-linecap:round; stroke-linejoin:round;">
<path d="M33900 27200
L34200 27200
" />
<path d="M33350 27250
L33400 27200
" />
<path d="M33400 27200
L33900 27200
" />
<path d="M32550 27250
L33350 27250
" />
</g>
<g style="fill:#000000; fill-opacity:0.0; 
stroke:#000000; stroke-width:250; stroke-opacity:1; 
stroke-linecap:round; stroke-linejoin:round;">
<path d="M41500 29500
L41000 29000
" />
<path d="M41000 29000
L36000 29000
" />
<path d="M41500 29500
L41500 29968
" />
<path d="M34250 27250
L36000 29000
" />
</g>
<g style="fill:#000000; fill-opacity:0.0; 
stroke:#000000; stroke-width:150; stroke-opacity:1; 
stroke-linecap:round; stroke-linejoin:round;">
<path d="M34200 27200
L34250 27250
" />
</g>
<g style="fill:#000000; fill-opacity:0.0; 
stroke:#000000; stroke-width:250; stroke-opacity:1; 
stroke-linecap:round; stroke-linejoin:round;">
<path d="M48250 28250
L48000 28000
" />
<path d="M48000 25750
L47500 25250
" />
<path d="M48000 28000
L48000 25750
" />
<path d="M49200 28400
L48400 28400
" />
<path d="M48400 28400
L48250 28250
" />
</g>
<g style="fill:#000000; fill-opacity:0.0; 
stroke:#000000; stroke-width:150; stroke-opacity:1; 
stroke-linecap:round; stroke-linejoin:round;">
<path d="M30050 26750
L29250 26750
" />
<path d="M29250 26750
L29000 26500
" />
</g>
<g style="fill:#000000; fill-opacity:0.0; 
stroke:#000000; stroke-width:250; stroke-opacity:1; 
stroke-linecap:round; stroke-linejoin:round;">
<path d="M29500 22500
L28500 23500
" />
<path d="M46000 22000
L30000 22000
" />
<path d="M30000 22000
L29500 22500
" />
<path d="M46500 22500
L47500 23500
" />
<path d="M47500 25250
L47500 23500
" />
<path d="M46500 22500
L46000 22000
" />
<path d="M28500 26000
L29000 26500
" />
<path d="M29000 26500
L29250 26750
" />
<path d="M28500 23500
L28500 26000
" />
</g>
<g style="fill:#000000; fill-opacity:0.0; 
stroke:#000000; stroke-width:150; stroke-opacity:1; 
stroke-linecap:round; stroke-linejoin:round;">
<path d="M30050 27250
L28750 27250
" />
<path d="M28750 27250
L28500 27000
" />
</g>
<g style="fill:#000000; fill-opacity:0.0; 
stroke:#000000; stroke-width:250; stroke-opacity:1; 
stroke-linecap:round; stroke-linejoin:round;">
<path d="M28000 25500
L28000 26500
" />
<path d="M28000 23000
L28000 25500
" />
<path d="M48400 25400
L48000 25000
" />
<path d="M48000 25000
L48000 23000
" />
<path d="M48000 23000
L46500 21500
" />
<path d="M46500 21500
L29500 21500
" />
<path d="M29500 21500
L28000 23000
" />
<path d="M49200 25400
L48400 25400
" />
<path d="M28000 26500
L28500 27000
" />
<path d="M28500 27000
L28750 27250
" />
<path d="M47750 39500
L42750 39500
" />
<path d="M49000 38250
L47750 39500
" />
<path d="M51750 35500
L51500 35750
" />
<path d="M51500 35750
L49750 35750
" />
<path d="M49750 35750
L49025 36474
" />
<path d="M49025 36474
L49025 38224
" />
<path d="M49025 38224
L49000 38250
" />
<path d="M51750 34900
L51750 35500
" />
<path d="M33750 28750
L33500 28750
" />
<path d="M35500 30500
L33750 28750
" />
<path d="M35500 32250
L35500 30500
" />
<path d="M42750 39500
L35500 32250
" />
</g>
<g style="fill:#000000; fill-opacity:0.0; 
stroke:#000000; stroke-width:150; stroke-opacity:1; 
stroke-linecap:round; stroke-linejoin:round;">
<path d="M32550 28750
L33500 28750
" />
</g>
<g style="fill:#000000; fill-opacity:0.0; 
stroke:#000000; stroke-width:250; stroke-opacity:1; 
stroke-linecap:round; stroke-linejoin:round;">
<path d="M33500 28750
L33250 28750
" />
</g>
<g style="fill:#000000; fill-opacity:0.0; 
stroke:#000000; stroke-width:150; stroke-opacity:1; 
stroke-linecap:round; stroke-linejoin:round;">
<path d="M30050 27750
L28250 27750
" />
<path d="M28250 27750
L28000 27500
" />
</g>
<g style="fill:#000000; fill-opacity:0.0; 
stroke:#000000; stroke-width:250; stroke-opacity:1; 
stroke-linecap:round; stroke-linejoin:round;">
<path d="M27500 27000
L28000 27500
" />
<path d="M28000 27500
L28250 27750
" />
<path d="M48400 22400
L47000 21000
" />
<path d="M47000 21000
L29000 21000
" />
<path d="M29000 21000
L27500 22500
" />
<path d="M27500 22500
L27500 27000
" />
<path d="M49200 22400
L48400 22400
" />
</g>
<g style="fill:#000000; fill-opacity:0.0; 
stroke:#000000; stroke-width:500; stroke-opacity:1; 
stroke-linecap:round; stroke-linejoin:round;">
<path d="M55000 22000
L53000 22000
" />
<path d="M52500 21500
L51800 21500
" />
<path d="M53000 22000
L52500 21500
" />
<path d="M55000 24500
L51800 24500
" />
<path d="M55000 27000
L53000 27000
" />
<path d="M52500 27500
L51800 27500
" />
<path d="M53000 27000
L52500 27500
" />
</g>
<g style="fill:#000000; fill-opacity:0.0; 
stroke:#000000; stroke-width:250; stroke-opacity:1; 
stroke-linecap:round; stroke-linejoin:round;">
<path d="M40374 31091
L41440 31091
" />
<path d="M41440 31091
L41500 31031
" />
<path d="M33500 25624
L32874 25624
" />
<path d="M32874 25624
L32500 25250
" />
</g>
<g style="fill:#000000; fill-opacity:0.0; 
stroke:#000000; stroke-width:150; stroke-opacity:1; 
stroke-linecap:round; stroke-linejoin:round;">
<path d="M32550 26250
L33250 26250
" />
<path d="M33500 26000
L33500 25624
" />
<path d="M33250 26250
L33500 26000
" />
</g>
<g style="fill:#000000; fill-opacity:0.0; 
stroke:#000000; stroke-width:250; stroke-opacity:1; 
stroke-linecap:round; stroke-linejoin:round;">
<path d="M38000 24500
L37250 24500
" />
<path d="M39757 24500
L38000 24500
" />
</g>
<g style="fill:#000000; fill-opacity:0.0; 
stroke:#000000; stroke-width:150; stroke-opacity:1; 
stroke-linecap:round; stroke-linejoin:round;">
<path d="M36250 25500
L36500 25250
" />
<path d="M33750 25500
L33625 25624
" />
<path d="M33750 25500
L36250 25500
" />
</g>
<g style="fill:#000000; fill-opacity:0.0; 
stroke:#000000; stroke-width:250; stroke-opacity:1; 
stroke-linecap:round; stroke-linejoin:round;">
<path d="M37250 24500
L36500 25250
" />
</g>
<g style="fill:#000000; fill-opacity:0.0; 
stroke:#000000; stroke-width:150; stroke-opacity:1; 
stroke-linecap:round; stroke-linejoin:round;">
<path d="M33500 25624
L33625 25624
" />
</g>
<g style="fill:#000000; fill-opacity:0.0; 
stroke:#000000; stroke-width:250; stroke-opacity:1; 
stroke-linecap:round; stroke-linejoin:round;">
<path d="M41050 26500
L40250 26500
" />
<path d="M40250 26500
L39757 26007
" />
<path d="M39757 26007
L39757 24500
" />
</g>
<g style="fill:#000000; fill-opacity:0.0; 
stroke:#000000; stroke-width:150; stroke-opacity:1; 
stroke-linecap:round; stroke-linejoin:round;">
<path d="M32550 27750
L33750 27750
" />
</g>
<g style="fill:#000000; fill-opacity:0.0; 
stroke:#000000; stroke-width:250; stroke-opacity:1; 
stroke-linecap:round; stroke-linejoin:round;">
<path d="M30500 34500
L31500 35500
" />
<path d="M30000 30000
L30000 34000
" />
<path d="M30500 34500
L30000 34000
" />
<path d="M31500 35500
L31500 39000
" />
<path d="M31000 39000
L31500 39000
" />
<path d="M31500 39000
L34000 39000
" />
</g>
<g style="fill:#000000; fill-opacity:0.0; 
stroke:#000000; stroke-width:150; stroke-opacity:1; 
stroke-linecap:round; stroke-linejoin:round;">
<path d="M30000 30000
L30000 29300
" />
<path d="M30000 29300
L30050 29250
" />
</g>
<g style="fill:#000000; fill-opacity:0.0; 
stroke:#000000; stroke-width:250; stroke-opacity:1; 
stroke-linecap:round; stroke-linejoin:round;">
<path d="M27000 39000
L29500 39000
" />
<path d="M26500 39000
L27000 39000
" />
<path d="M27000 39000
L27000 30000
" />
<path d="M27000 30000
L28000 29000
" />
</g>
<g style="fill:#000000; fill-opacity:0.0; 
stroke:#000000; stroke-width:150; stroke-opacity:1; 
stroke-linecap:round; stroke-linejoin:round;">
<path d="M28750 28750
L30050 28750
" />
<path d="M30050 28750
L28250 28750
" />
<path d="M28250 28750
L28000 29000
" />
</g>
<g style="fill:#000000; fill-opacity:0.0; 
stroke:#000000; stroke-width:250; stroke-opacity:1; 
stroke-linecap:round; stroke-linejoin:round;">
<path d="M28000 29000
L28250 28750
" />
<path d="M25000 28500
L24500 29000
" />
</g>
<g style="fill:#000000; fill-opacity:0.0; 
stroke:#000000; stroke-width:150; stroke-opacity:1; 
stroke-linecap:round; stroke-linejoin:round;">
<path d="M25250 28250
L25000 28500
" />
<path d="M29150 28250
L29100 28200
" />
<path d="M29100 28200
L25300 28200
" />
<path d="M25300 28200
L25250 28250
" />
<path d="M30050 28250
L29150 28250
" />
</g>
<g style="fill:#000000; fill-opacity:0.0; 
stroke:#000000; stroke-width:250; stroke-opacity:1; 
stroke-linecap:round; stroke-linejoin:round;">
<path d="M24500 29000
L24500 39000
" />
<path d="M22500 39000
L22000 39000
" />
<path d="M25000 39000
L24500 39000
" />
<path d="M24500 39000
L22500 39000
" />
<path d="M63779 37795
L63779 38513
" />
<path d="M63779 38513
L65285 40019
" />
<path d="M64779 37795
L64779 38401
" />
<path d="M66535 43769
L67785 45019
" />
<path d="M66535 39763
L66535 43769
" />
<path d="M65748 38976
L66535 39763
" />
<path d="M65354 38976
L65748 38976
" />
<path d="M64779 38401
L65354 38976
" />
<path d="M62992 37007
L62992 40476
" />
<path d="M65354 37007
L62992 37007
" />
<path d="M65779 37433
L65354 37007
" />
<path d="M62992 40476
L64035 41519
" />
<path d="M65779 37795
L65779 37433
" />
<path d="M66779 37795
L66779 39013
" />
<path d="M66779 39013
L67785 40019
" />
<path d="M67779 37795
L67779 38251
" />
<path d="M69035 39507
L69035 42519
" />
<path d="M67779 38251
L69035 39507
" />
<path d="M68779 37795
L68779 38070
" />
<path d="M68779 38070
L69685 38976
" />
<path d="M69685 38976
L69685 44488
" />
<path d="M69685 44488
L68503 45669
" />
<path d="M68503 45669
L65935 45669
" />
<path d="M65935 45669
L65285 45019
" />
</g>
<g style="fill:#000000; fill-opacity:1.0; 
stroke:#000000; stroke-width:150; stroke-opacity:1; 
stroke-linecap:round; stroke-linejoin:round;">
<polyline style="fill-rule:evenodd;"
points="57175,20684
57123,20649
56968,20618
53031,20618
52886,20645
52754,20730
52665,20861
52659,20891
52597,20879
52597,20780
52570,20635
52485,20502
52354,20413
52200,20382
51400,20382
51255,20409
51122,20494
51033,20625
51002,20780
51002,22220
51029,22364
51114,22497
51245,22586
51400,22617
52200,22617
52344,22590
52477,22505
52527,22432
52547,22452
52633,22510
52633,22984
52661,23128
52740,23251
52665,23361
52633,23515
52633,23860
52597,23860
52597,23780
52570,23635
52485,23502
52354,23413
52200,23382
51400,23382
51255,23409
51122,23494
51033,23625
51002,23780
51002,25220
51029,25364
51114,25497
51245,25586
51400,25617
52200,25617
52344,25590
52477,25505
52566,25374
52597,25220
52597,25139
52633,25139
52633,25484
52661,25628
52740,25751
52665,25861
52633,26015
52633,26489
52547,26547
52526,26567
52485,26502
52354,26413
52200,26382
51400,26382
51255,26409
51122,26494
51033,26625
51002,26780
51002,28220
51029,28364
51114,28497
51245,28586
51400,28617
52200,28617
52344,28590
52477,28505
52566,28374
52597,28220
52597,28120
52657,28108
52661,28128
52746,28261
52876,28350
53031,28381
56968,28381
57113,28354
57175,28314
57175,29189
57138,29165
56984,29133
55015,29133
54871,29161
54738,29246
54649,29376
54618,29531
54618,29860
53822,29860
53755,29846
53244,29846
53099,29873
52966,29959
52941,29996
52802,30024
52635,30135
52570,30201
52473,30183
52157,30500
52162,30505
52127,30540
52122,30535
51806,30851
51824,30952
51985,31017
51985,31484
51950,31484
51881,31553
51881,31975
51889,31975
51889,32025
51881,32025
51881,32446
51950,32515
51985,32515
51985,34272
51945,34245
51750,34206
51554,34245
51389,34356
51386,34360
51378,34355
51336,34344
51275,34404
51275,34540
51240,34716
51240,34874
51235,34900
51235,34932
51225,34932
51225,34925
50775,34925
50775,34932
50725,34932
50725,34925
50275,34925
50275,34932
50225,34932
50225,34925
49855,34925
49855,35095
49892,35235
49750,35235
49552,35274
49385,35385
49385,35385
49346,35425
48639,35425
48639,34705
49855,34705
49855,34875
50225,34875
50225,34404
50275,34404
50275,34875
50725,34875
50725,34404
50775,34404
50775,34875
51225,34875
51225,34404
51163,34344
51121,34355
51000,34426
50878,34355
50836,34344
50775,34404
50725,34404
50663,34344
50621,34355
50500,34426
50378,34355
50336,34344
50275,34404
50225,34404
50163,34344
50121,34355
49988,34433
49894,34555
49855,34705
48639,34705
48639,33265
48952,32952
49091,32744
49139,32500
49139,32093
51402,32093
51402,32294
51444,32395
51521,32473
51622,32515
51762,32515
51831,32446
51831,32025
51470,32025
51402,32093
49139,32093
49139,31851
49561,31851
49580,31952
49776,32031
49987,32030
50175,31952
50193,31851
49877,31535
49561,31851
49139,31851
49139,31822
49153,31755
49153,31398
49346,31398
49347,31609
49425,31797
49526,31816
49842,31500
49913,31500
50229,31816
50330,31797
50367,31705
51402,31705
51402,31906
51470,31975
51831,31975
51831,31553
51762,31484
51622,31484
51521,31526
51444,31604
51402,31705
50367,31705
50409,31601
50408,31390
50330,31202
50229,31183
49913,31500
49842,31500
49526,31183
49425,31202
49346,31398
49153,31398
49153,31244
49135,31148
49561,31148
49877,31464
50193,31148
50175,31047
49979,30968
49768,30969
49580,31047
49561,31148
49135,31148
49126,31099
49040,30966
48910,30877
48755,30846
48244,30846
48172,30860
48015,30860
47747,30592
49942,30592
50001,30728
50318,30863
50662,30867
50982,30739
50998,30728
51057,30592
50500,30035
49942,30592
47747,30592
47389,30234
47389,30162
49632,30162
49760,30482
49771,30498
49907,30557
50464,30000
50535,30000
51092,30557
51228,30498
51271,30398
51590,30398
51591,30609
51669,30797
51770,30816
52086,30500
51770,30183
51669,30202
51590,30398
51271,30398
51363,30181
51363,30148
51806,30148
52122,30464
52438,30148
52419,30047
52223,29968
52012,29969
51824,30047
51806,30148
51363,30148
51367,29837
51239,29517
51228,29501
51092,29442
50535,30000
50464,30000
49907,29442
49771,29501
49636,29818
49632,30162
47389,30162
47389,29550
47361,29407
49942,29407
50500,29964
51057,29407
50998,29271
50681,29136
50337,29132
50017,29260
50001,29271
49942,29407
47361,29407
47341,29305
47202,29097
46497,28392
46497,28300
46470,28155
46389,28029
46414,27900
46375,27702
46264,27535
45832,27104
45665,26992
45468,26953
42802,26953
42781,26919
42753,26900
42771,26857
42771,26601
42702,26532
42275,26532
42275,26540
42225,26540
42225,26532
42217,26532
42217,26482
42225,26482
42225,26006
42275,26006
42275,26482
42702,26482
42771,26414
42771,26157
42729,26056
42651,25979
42550,25937
42343,25937
42275,26006
42225,26006
42156,25937
41949,25937
41848,25979
41770,26056
41765,26069
41735,26022
41664,25974
41683,25955
41725,25854
41725,25693
41656,25625
41075,25625
41075,25632
41025,25632
41025,25625
40443,25625
40375,25693
40375,25854
40404,25926
40272,25794
40272,25345
40375,25345
40375,25506
40443,25575
41025,25575
41025,25193
41075,25193
41075,25575
41656,25575
41725,25506
41725,25345
41683,25244
41625,25186
42003,25186
42146,25532
42411,25797
42756,25940
43131,25941
43477,25798
43540,25734
45550,25734
45633,25890
46021,26058
46444,26065
46837,25910
46866,25890
46949,25734
46250,25035
45550,25734
43540,25734
43742,25533
43883,25194
45184,25194
45339,25587
45359,25616
45515,25699
46214,25000
45515,24300
45359,24383
45191,24771
45184,25194
43883,25194
43885,25188
43886,24813
43743,24467
43478,24202
43132,24059
42758,24058
42412,24201
42147,24466
42003,24811
42003,25186
41625,25186
41605,25166
41504,25125
41143,25125
41075,25193
41025,25193
40956,25125
40595,25125
40494,25166
40416,25244
40375,25345
40272,25345
40272,25068
40330,25031
40349,25003
40392,25021
40648,25021
40717,24952
40717,24525
40767,24525
40767,24952
40835,25021
41092,25021
41193,24979
41270,24901
41312,24800
41312,24593
41243,24525
40767,24525
40717,24525
40709,24525
40709,24475
40717,24475
40717,24047
40767,24047
40767,24475
41243,24475
41312,24406
41312,24199
41270,24098
41193,24020
41092,23978
40835,23978
40767,24047
40717,24047
40648,23978
40392,23978
40350,23996
40338,23976
40207,23887
40053,23856
39462,23856
39318,23883
39185,23968
39174,23985
37250,23985
37250,23985
37099,24014
37052,24024
36925,24109
36885,24135
36135,24885
36036,25035
36003,25035
35962,24993
35525,24993
35525,25001
35475,25001
35475,24993
35037,24993
35000,25031
34962,24993
34525,24993
34525,25001
34475,25001
34475,24993
34037,24993
33996,25035
33922,25035
33922,24969
33853,24900
33525,24900
33525,24908
33475,24908
33475,24900
33467,24900
33467,24850
33475,24850
33475,24433
33525,24433
33525,24850
33853,24850
33922,24782
33922,24618
33969,24618
33969,24874
34037,24943
34475,24943
34475,24466
34525,24466
34525,24943
34962,24943
35000,24905
35037,24943
35475,24943
35475,24466
35525,24466
35525,24943
35962,24943
36030,24874
36030,24618
35989,24517
35911,24440
35810,24398
35593,24398
35525,24466
35475,24466
35406,24398
35189,24398
35088,24440
35010,24517
35000,24543
34989,24517
34911,24440
34810,24398
34593,24398
34525,24466
34475,24466
34406,24398
34189,24398
34088,24440
34010,24517
33969,24618
33922,24618
33922,24585
33880,24483
33803,24406
33702,24364
33593,24364
33525,24433
33475,24433
33406,24364
33297,24364
33196,24406
33119,24483
33077,24585
33077,24782
33146,24850
33077,24850
33077,24851
32891,24665
32637,24560
32363,24559
32109,24664
31915,24858
31810,25112
31809,25386
31914,25640
32103,25829
32047,25864
31958,25995
31927,26150
31927,26350
31954,26494
31957,26499
31927,26650
31927,26850
31954,26994
31957,26999
31927,27150
31927,27350
31954,27494
31957,27499
31927,27650
31927,27850
31954,27994
31957,27999
31927,28150
31927,28350
31954,28494
31957,28499
31927,28650
31927,28850
31954,28994
31957,28999
31927,29150
31927,29350
31954,29494
32035,29619
32035,29739
31915,29858
31810,30112
31809,30386
31914,30640
32101,30827
31969,30827
31900,30896
31900,31225
31908,31225
31908,31275
31900,31275
31900,31603
31969,31672
32101,31672
32102,31674
32167,31719
32062,31719
31993,31787
31993,32225
32001,32225
32001,32275
31993,32275
31993,32712
32062,32780
32318,32780
32419,32739
32421,32737
32451,32783
32581,32872
32736,32903
33326,32903
33471,32876
33604,32790
33621,32764
33878,32764
33953,32877
34370,33295
34492,33378
34599,33401
34617,33497
34704,33629
35122,34046
35243,34129
35398,34163
35429,34157
41635,40364
41635,40364
41763,40449
41802,40475
42000,40514
47925,40514
47925,42175
16825,42175
16825,41365
21670,41365
21690,41467
21893,41550
22112,41549
22309,41467
22329,41365
24670,41365
24690,41467
24893,41550
25112,41549
25309,41467
25329,41365
26170,41365
26190,41467
26393,41550
26612,41549
26809,41467
26829,41365
29170,41365
29190,41467
29393,41550
29612,41549
29809,41467
29829,41365
30670,41365
30690,41467
30893,41550
31112,41549
31309,41467
31329,41365
33670,41365
33690,41467
33893,41550
34112,41549
34309,41467
34329,41365
34000,41035
33670,41365
31329,41365
31000,41035
30670,41365
29829,41365
29500,41035
29170,41365
26829,41365
26500,41035
26170,41365
25329,41365
25000,41035
24670,41365
22329,41365
22000,41035
21670,41365
16825,41365
16825,40893
21449,40893
21450,41112
21532,41309
21634,41329
21964,41000
22035,41000
22365,41329
22467,41309
22550,41106
22549,40893
24449,40893
24450,41112
24532,41309
24634,41329
24964,41000
25035,41000
25365,41329
25467,41309
25550,41106
25549,40893
25949,40893
25950,41112
26032,41309
26134,41329
26464,41000
26535,41000
26865,41329
26967,41309
27050,41106
27049,40893
28949,40893
28950,41112
29032,41309
29134,41329
29464,41000
29535,41000
29865,41329
29967,41309
30050,41106
30049,40893
30449,40893
30450,41112
30532,41309
30634,41329
30964,41000
31035,41000
31365,41329
31467,41309
31550,41106
31549,40893
33449,40893
33450,41112
33532,41309
33634,41329
33964,41000
34035,41000
34365,41329
34467,41309
34550,41106
34549,40887
34467,40690
34365,40670
34035,41000
33964,41000
33634,40670
33532,40690
33449,40893
31549,40893
31549,40887
31467,40690
31365,40670
31035,41000
30964,41000
30634,40670
30532,40690
30449,40893
30049,40893
30049,40887
29967,40690
29865,40670
29535,41000
29464,41000
29134,40670
29032,40690
28949,40893
27049,40893
27049,40887
26967,40690
26865,40670
26535,41000
26464,41000
26134,40670
26032,40690
25949,40893
25549,40893
25549,40887
25467,40690
25365,40670
25035,41000
24964,41000
24634,40670
24532,40690
24449,40893
22549,40893
22549,40887
22467,40690
22365,40670
22035,41000
21964,41000
21634,40670
21532,40690
21449,40893
16825,40893
16825,40634
21670,40634
22000,40964
22329,40634
24670,40634
25000,40964
25329,40634
26170,40634
26500,40964
26829,40634
29170,40634
29500,40964
29829,40634
30670,40634
31000,40964
31329,40634
33670,40634
34000,40964
34329,40634
34309,40532
34106,40449
33887,40450
33690,40532
33670,40634
31329,40634
31309,40532
31106,40449
30887,40450
30690,40532
30670,40634
29829,40634
29809,40532
29606,40449
29387,40450
29190,40532
29170,40634
26829,40634
26809,40532
26606,40449
26387,40450
26190,40532
26170,40634
25329,40634
25309,40532
25106,40449
24887,40450
24690,40532
24670,40634
22329,40634
22309,40532
22106,40449
21887,40450
21690,40532
21670,40634
16825,40634
16825,33489
17082,33747
17514,33927
17983,33927
18416,33748
18747,33417
18927,32985
18927,32936
20113,32936
20256,33282
20521,33547
20867,33690
21241,33691
21587,33548
21852,33283
21996,32938
21996,32563
21853,32217
21588,31952
21243,31809
20868,31808
20522,31951
20257,32216
20114,32561
20113,32936
18927,32936
18927,32516
18748,32083
18639,31975
18639,25775
18747,25667
18927,25235
18927,25186
20113,25186
20256,25532
20521,25797
20867,25940
21241,25941
21587,25798
21852,25533
21996,25188
21996,24813
21853,24467
21588,24202
21243,24059
20868,24058
20522,24201
20257,24466
20114,24811
20113,25186
18927,25186
18927,24766
18748,24333
18417,24002
17985,23822
17516,23822
17083,24001
16825,24259
16825,22325
27019,22325
26985,22500
26985,27000
27024,27197
27135,27364
27506,27735
25300,27735
25122,27770
24971,27871
24822,28020
24802,28024
24635,28135
24596,28175
22500,28175
22472,28180
22447,28196
22430,28220
22425,28250
22425,38484
22377,38436
22132,38335
21868,38334
21623,38435
21436,38622
21335,38867
21334,39131
21435,39376
21622,39563
21867,39664
22131,39665
22376,39564
22425,39514
24574,39514
24622,39563
24867,39664
25131,39665
25376,39564
25563,39377
25664,39132
25664,39075
25834,39075
25834,39131
25935,39376
26122,39563
26367,39664
26631,39665
26876,39564
26925,39514
29074,39514
29122,39563
29367,39664
29631,39665
29876,39564
30063,39377
30164,39132
30164,39075
30334,39075
30334,39131
30435,39376
30622,39563
30867,39664
31131,39665
31376,39564
31425,39514
33574,39514
33622,39563
33867,39664
34131,39665
34376,39564
34563,39377
34664,39132
34665,38868
34564,38623
34377,38436
34132,38335
33868,38334
33623,38435
33574,38485
32014,38485
32014,35500
31975,35302
31864,35135
31864,35135
30864,34135
30514,33786
30514,32343
31398,32343
31398,32560
31440,32661
31517,32739
31618,32780
31874,32780
31943,32712
31943,32275
31466,32275
31398,32343
30514,32343
30514,31939
31398,31939
31398,32156
31466,32225
31943,32225
31943,31787
31874,31719
31618,31719
31517,31760
31440,31838
31398,31939
30514,31939
30514,31343
31364,31343
31364,31452
31406,31553
31483,31630
31585,31672
31782,31672
31850,31603
31850,31275
31433,31275
31364,31343
30514,31343
30514,31047
31364,31047
31364,31156
31433,31225
31850,31225
31850,30896
31782,30827
31585,30827
31483,30869
31406,30946
31364,31047
30514,31047
30514,30710
30584,30641
30689,30387
30690,30113
30585,29859
30464,29739
30464,29691
30552,29635
30641,29504
30672,29350
30672,29150
30645,29005
30642,29000
30672,28850
30672,28650
30645,28505
30642,28500
30672,28350
30672,28150
30645,28005
30642,28000
30672,27850
30672,27650
30645,27505
30642,27500
30672,27350
30672,27150
30645,27005
30642,27000
30672,26850
30672,26650
30645,26505
30560,26372
30550,26365
30550,26343
30481,26275
30386,26275
30275,26252
29825,26252
29704,26275
29618,26275
29608,26285
29513,26285
29364,26135
29323,26095
29550,26095
29550,26156
29618,26225
30025,26225
30025,25943
30075,25943
30075,26225
30481,26225
30550,26156
30550,26095
30508,25994
30430,25916
30329,25875
30143,25875
30075,25943
30025,25943
29956,25875
29770,25875
29669,25916
29591,25994
29550,26095
29323,26095
29014,25786
29014,25633
29652,25633
29675,25738
29887,25825
30116,25824
30324,25738
30347,25633
30000,25285
29652,25633
29014,25633
29014,25137
29424,25137
29425,25366
29511,25574
29616,25597
29964,25250
30035,25250
30383,25597
30488,25574
30575,25362
30574,25133
30488,24925
30383,24902
30035,25250
29964,25250
29616,24902
29511,24925
29424,25137
29014,25137
29014,24866
29652,24866
30000,25214
30347,24866
30324,24761
30112,24674
29883,24675
29675,24761
29652,24866
29014,24866
29014,23713
29864,22864
29864,22864
30213,22514
45786,22514
46135,22864
46985,23713
46985,24229
46949,24265
46866,24109
46478,23941
46055,23934
45662,24089
45633,24109
45550,24265
46250,24964
46255,24959
46290,24994
46285,25000
46984,25699
47138,25617
47485,25963
47485,28000
47524,28197
47635,28364
47885,28614
47885,28614
48035,28764
48035,28764
48202,28875
48400,28914
48570,28914
48645,28966
48800,28997
49600,28997
49744,28970
49877,28885
49966,28754
49997,28600
49997,28200
49970,28055
49901,27948
49966,27854
49997,27700
49997,27300
49970,27155
49885,27022
49814,26974
49833,26955
49875,26854
49875,26693
49806,26625
49225,26625
49225,26632
49175,26632
49175,26625
48593,26625
48525,26693
48525,26854
48566,26955
48585,26974
48522,27014
48514,27026
48514,26345
48525,26345
48525,26506
48593,26575
49175,26575
49175,26193
49225,26193
49225,26575
49806,26575
49875,26506
49875,26345
49833,26244
49755,26166
49654,26125
49293,26125
49225,26193
49175,26193
49106,26125
48745,26125
48644,26166
48566,26244
48525,26345
48514,26345
48514,25914
48570,25914
48645,25966
48800,25997
49600,25997
49744,25970
49877,25885
49966,25754
49997,25600
49997,25200
49970,25055
49901,24948
49966,24854
49997,24700
49997,24300
49970,24155
49885,24022
49814,23974
49833,23955
49875,23854
49875,23693
49806,23625
49225,23625
49225,23632
49175,23632
49175,23625
48593,23625
48525,23693
48525,23854
48566,23955
48585,23974
48522,24014
48514,24026
48514,23345
48525,23345
48525,23506
48593,23575
49175,23575
49175,23193
49225,23193
49225,23575
49806,23575
49875,23506
49875,23345
49833,23244
49755,23166
49654,23125
49293,23125
49225,23193
49175,23193
49106,23125
48745,23125
48644,23166
48566,23244
48525,23345
48514,23345
48514,23000
48514,23000
48498,22914
48570,22914
48645,22966
48800,22997
49600,22997
49744,22970
49877,22885
49966,22754
49997,22600
49997,22200
49970,22055
49901,21948
49966,21854
49997,21700
49997,21300
49970,21155
49885,21022
49814,20974
49833,20955
49875,20854
49875,20693
49806,20625
49225,20625
49225,20632
49175,20632
49175,20625
49167,20625
49167,20575
49175,20575
49175,20193
49225,20193
49225,20575
49806,20575
49875,20506
49875,20345
49833,20244
49755,20166
49654,20125
49293,20125
49225,20193
49175,20193
49106,20125
48825,20125
48825,20075
57175,20075
57175,20684
" /> 
<polyline style="fill-rule:evenodd;"
points="39312,30503
39235,30580
39193,30681
39193,30997
39262,31066
39600,31066
39600,31058
39650,31058
39650,31066
39658,31066
39658,31116
39650,31116
39650,31651
39719,31720
39838,31720
39910,31690
39931,31722
40061,31811
40216,31843
40531,31843
40676,31815
40808,31730
40893,31605
40961,31605
41089,31693
41244,31724
41755,31724
41900,31697
42033,31611
42122,31481
42153,31326
42153,30934
42177,30929
42328,30828
42346,30811
42346,31326
42373,31471
42459,31604
42589,31693
42744,31724
43255,31724
43400,31697
43533,31611
43577,31546
43755,31546
43872,31664
43872,31664
43882,31670
43882,31700
43909,31844
43994,31977
44125,32066
44280,32097
44379,32097
44408,32244
44547,32452
45072,32977
45072,32983
45251,33416
45582,33747
46014,33927
46483,33927
46916,33748
47247,33417
47360,33146
47360,37031
47336,37055
47216,37343
47216,37655
47335,37943
47555,38163
47843,38283
47925,38283
47925,38596
47536,38985
45109,38985
45136,38968
45268,38788
45321,38572
45321,38275
44775,38275
44775,38282
44725,38282
44725,38275
44717,38275
44717,38225
44725,38225
44725,37450
44775,37450
44775,38225
45321,38225
45321,37928
45268,37711
45136,37531
44945,37415
44864,37392
44775,37450
44725,37450
44635,37392
44554,37415
44363,37531
44325,37583
44235,37448
44012,37299
43750,37247
43487,37299
43264,37448
43115,37671
43103,37735
42963,37735
38514,33286
38514,32936
42003,32936
42146,33282
42411,33547
42756,33690
43131,33691
43477,33548
43742,33283
43885,32938
43886,32563
43743,32217
43478,31952
43132,31809
42758,31808
42412,31951
42147,32216
42003,32561
42003,32936
38514,32936
38514,31724
38755,31724
38900,31697
39033,31611
39122,31481
39153,31326
39153,31184
39193,31184
39193,31500
39235,31601
39312,31678
39413,31720
39532,31720
39600,31651
39600,31116
39262,31116
39193,31184
39153,31184
39153,30736
39126,30591
39066,30499
39077,30483
39360,30483
39312,30503
" /> 
</g>
<g style="fill:#FFFFFF; fill-opacity:1.0; 
stroke:#FFFFFF; stroke-width:150; stroke-opacity:1; 
stroke-linecap:round; stroke-linejoin:round;">
</g>
<g style="fill:#FFFFFF; fill-opacity:1.0; 
stroke:#FFFFFF; stroke-width:0; stroke-opacity:1; 
stroke-linecap:round; stroke-linejoin:round;">
<circle cx="46500" cy="41000" r="68.8976" /> 
</g>
<g style="fill:#FFFFFF; fill-opacity:1.0; 
stroke:#FFFFFF; stroke-width:39.3701; stroke-opacity:1; 
stroke-linecap:round; stroke-linejoin:round;">
</g>
<g style="fill:#FFFFFF; fill-opacity:1.0; 
stroke:#FFFFFF; stroke-width:0; stroke-opacity:1; 
stroke-linecap:round; stroke-linejoin:round;">
<circle cx="46500" cy="38250" r="68.8976" /> 
</g>
<g style="fill:#FFFFFF; fill-opacity:1.0; 
stroke:#FFFFFF; stroke-width:39.3701; stroke-opacity:1; 
stroke-linecap:round; stroke-linejoin:round;">
</g>
<g style="fill:#FFFFFF; fill-opacity:1.0; 
stroke:#FFFFFF; stroke-width:0; stroke-opacity:1; 
stroke-linecap:round; stroke-linejoin:round;">
<circle cx="57000" cy="37500" r="68.8976" /> 
</g>
<g style="fill:#FFFFFF; fill-opacity:1.0; 
stroke:#FFFFFF; stroke-width:39.3701; stroke-opacity:1; 
stroke-linecap:round; stroke-linejoin:round;">
</g>
<g style="fill:#FFFFFF; fill-opacity:1.0; 
stroke:#FFFFFF; stroke-width:0; stroke-opacity:1; 
stroke-linecap:round; stroke-linejoin:round;">
<circle cx="48000" cy="37500" r="68.8976" /> 
</g>
<g style="fill:#FFFFFF; fill-opacity:1.0; 
stroke:#FFFFFF; stroke-width:39.3701; stroke-opacity:1; 
stroke-linecap:round; stroke-linejoin:round;">
</g>
<g style="fill:#FFFFFF; fill-opacity:1.0; 
stroke:#FFFFFF; stroke-width:0; stroke-opacity:1; 
stroke-linecap:round; stroke-linejoin:round;">
<circle cx="46250" cy="32750" r="68.8976" /> 
</g>
<g style="fill:#FFFFFF; fill-opacity:1.0; 
stroke:#FFFFFF; stroke-width:39.3701; stroke-opacity:1; 
stroke-linecap:round; stroke-linejoin:round;">
</g>
<g style="fill:#FFFFFF; fill-opacity:1.0; 
stroke:#FFFFFF; stroke-width:0; stroke-opacity:1; 
stroke-linecap:round; stroke-linejoin:round;">
<circle cx="17750" cy="32750" r="68.8976" /> 
</g>
<g style="fill:#FFFFFF; fill-opacity:1.0; 
stroke:#FFFFFF; stroke-width:39.3701; stroke-opacity:1; 
stroke-linecap:round; stroke-linejoin:round;">
</g>
<g style="fill:#FFFFFF; fill-opacity:1.0; 
stroke:#FFFFFF; stroke-width:0; stroke-opacity:1; 
stroke-linecap:round; stroke-linejoin:round;">
<circle cx="42944.9" cy="32750" r="68.8976" /> 
</g>
<g style="fill:#FFFFFF; fill-opacity:1.0; 
stroke:#FFFFFF; stroke-width:39.3701; stroke-opacity:1; 
stroke-linecap:round; stroke-linejoin:round;">
</g>
<g style="fill:#FFFFFF; fill-opacity:1.0; 
stroke:#FFFFFF; stroke-width:0; stroke-opacity:1; 
stroke-linecap:round; stroke-linejoin:round;">
<circle cx="21055.1" cy="32750" r="68.8976" /> 
</g>
<g style="fill:#FFFFFF; fill-opacity:1.0; 
stroke:#FFFFFF; stroke-width:39.3701; stroke-opacity:1; 
stroke-linecap:round; stroke-linejoin:round;">
</g>
<g style="fill:#FFFFFF; fill-opacity:1.0; 
stroke:#FFFFFF; stroke-width:0; stroke-opacity:1; 
stroke-linecap:round; stroke-linejoin:round;">
<circle cx="17750" cy="25000" r="68.8976" /> 
</g>
<g style="fill:#FFFFFF; fill-opacity:1.0; 
stroke:#FFFFFF; stroke-width:39.3701; stroke-opacity:1; 
stroke-linecap:round; stroke-linejoin:round;">
</g>
<g style="fill:#FFFFFF; fill-opacity:1.0; 
stroke:#FFFFFF; stroke-width:0; stroke-opacity:1; 
stroke-linecap:round; stroke-linejoin:round;">
<circle cx="46250" cy="25000" r="68.8976" /> 
</g>
<g style="fill:#FFFFFF; fill-opacity:1.0; 
stroke:#FFFFFF; stroke-width:39.3701; stroke-opacity:1; 
stroke-linecap:round; stroke-linejoin:round;">
</g>
<g style="fill:#FFFFFF; fill-opacity:1.0; 
stroke:#FFFFFF; stroke-width:0; stroke-opacity:1; 
stroke-linecap:round; stroke-linejoin:round;">
<circle cx="21055.1" cy="25000" r="68.8976" /> 
</g>
<g style="fill:#FFFFFF; fill-opacity:1.0; 
stroke:#FFFFFF; stroke-width:39.3701; stroke-opacity:1; 
stroke-linecap:round; stroke-linejoin:round;">
</g>
<g style="fill:#FFFFFF; fill-opacity:1.0; 
stroke:#FFFFFF; stroke-width:0; stroke-opacity:1; 
stroke-linecap:round; stroke-linejoin:round;">
<circle cx="42944.9" cy="25000" r="68.8976" /> 
</g>
<g style="fill:#FFFFFF; fill-opacity:1.0; 
stroke:#FFFFFF; stroke-width:39.3701; stroke-opacity:1; 
stroke-linecap:round; stroke-linejoin:round;">
</g>
<g style="fill:#FFFFFF; fill-opacity:1.0; 
stroke:#FFFFFF; stroke-width:0; stroke-opacity:1; 
stroke-linecap:round; stroke-linejoin:round;">
<circle cx="49878" cy="31500" r="68.8976" /> 
</g>
<g style="fill:#FFFFFF; fill-opacity:1.0; 
stroke:#FFFFFF; stroke-width:39.3701; stroke-opacity:1; 
stroke-linecap:round; stroke-linejoin:round;">
</g>
<g style="fill:#FFFFFF; fill-opacity:1.0; 
stroke:#FFFFFF; stroke-width:0; stroke-opacity:1; 
stroke-linecap:round; stroke-linejoin:round;">
<circle cx="48500" cy="31500" r="68.8976" /> 
</g>
<g style="fill:#FFFFFF; fill-opacity:1.0; 
stroke:#FFFFFF; stroke-width:39.3701; stroke-opacity:1; 
stroke-linecap:round; stroke-linejoin:round;">
</g>
<g style="fill:#FFFFFF; fill-opacity:1.0; 
stroke:#FFFFFF; stroke-width:0; stroke-opacity:1; 
stroke-linecap:round; stroke-linejoin:round;">
<circle cx="52122" cy="30500" r="68.8976" /> 
</g>
<g style="fill:#FFFFFF; fill-opacity:1.0; 
stroke:#FFFFFF; stroke-width:39.3701; stroke-opacity:1; 
stroke-linecap:round; stroke-linejoin:round;">
</g>
<g style="fill:#FFFFFF; fill-opacity:1.0; 
stroke:#FFFFFF; stroke-width:0; stroke-opacity:1; 
stroke-linecap:round; stroke-linejoin:round;">
<circle cx="53500" cy="30500" r="68.8976" /> 
</g>
<g style="fill:#FFFFFF; fill-opacity:1.0; 
stroke:#FFFFFF; stroke-width:39.3701; stroke-opacity:1; 
stroke-linecap:round; stroke-linejoin:round;">
</g>
<g style="fill:#FFFFFF; fill-opacity:1.0; 
stroke:#FFFFFF; stroke-width:0; stroke-opacity:1; 
stroke-linecap:round; stroke-linejoin:round;">
<circle cx="43750" cy="38250" r="68.8976" /> 
</g>
<g style="fill:#FFFFFF; fill-opacity:1.0; 
stroke:#FFFFFF; stroke-width:39.3701; stroke-opacity:1; 
stroke-linecap:round; stroke-linejoin:round;">
</g>
<g style="fill:#FFFFFF; fill-opacity:1.0; 
stroke:#FFFFFF; stroke-width:0; stroke-opacity:1; 
stroke-linecap:round; stroke-linejoin:round;">
<circle cx="44750" cy="38250" r="68.8976" /> 
</g>
<g style="fill:#FFFFFF; fill-opacity:1.0; 
stroke:#FFFFFF; stroke-width:39.3701; stroke-opacity:1; 
stroke-linecap:round; stroke-linejoin:round;">
</g>
<g style="fill:#FFFFFF; fill-opacity:1.0; 
stroke:#FFFFFF; stroke-width:0; stroke-opacity:1; 
stroke-linecap:round; stroke-linejoin:round;">
<circle cx="30000" cy="30250" r="68.8976" /> 
</g>
<g style="fill:#FFFFFF; fill-opacity:1.0; 
stroke:#FFFFFF; stroke-width:39.3701; stroke-opacity:1; 
stroke-linecap:round; stroke-linejoin:round;">
</g>
<g style="fill:#FFFFFF; fill-opacity:1.0; 
stroke:#FFFFFF; stroke-width:0; stroke-opacity:1; 
stroke-linecap:round; stroke-linejoin:round;">
<circle cx="32500" cy="30250" r="68.8976" /> 
</g>
<g style="fill:#FFFFFF; fill-opacity:1.0; 
stroke:#FFFFFF; stroke-width:39.3701; stroke-opacity:1; 
stroke-linecap:round; stroke-linejoin:round;">
</g>
<g style="fill:#FFFFFF; fill-opacity:1.0; 
stroke:#FFFFFF; stroke-width:0; stroke-opacity:1; 
stroke-linecap:round; stroke-linejoin:round;">
<circle cx="32500" cy="25250" r="68.8976" /> 
</g>
<g style="fill:#FFFFFF; fill-opacity:1.0; 
stroke:#FFFFFF; stroke-width:39.3701; stroke-opacity:1; 
stroke-linecap:round; stroke-linejoin:round;">
</g>
<g style="fill:#FFFFFF; fill-opacity:1.0; 
stroke:#FFFFFF; stroke-width:0; stroke-opacity:1; 
stroke-linecap:round; stroke-linejoin:round;">
<circle cx="30000" cy="25250" r="68.8976" /> 
</g>
<g style="fill:#FFFFFF; fill-opacity:1.0; 
stroke:#FFFFFF; stroke-width:39.3701; stroke-opacity:1; 
stroke-linecap:round; stroke-linejoin:round;">
</g>
<g style="fill:#FFFFFF; fill-opacity:1.0; 
stroke:#FFFFFF; stroke-width:0; stroke-opacity:1; 
stroke-linecap:round; stroke-linejoin:round;">
<circle cx="33750" cy="27750" r="68.8976" /> 
</g>
<g style="fill:#FFFFFF; fill-opacity:1.0; 
stroke:#FFFFFF; stroke-width:39.3701; stroke-opacity:1; 
stroke-linecap:round; stroke-linejoin:round;">
</g>
<g style="fill:#FFFFFF; fill-opacity:1.0; 
stroke:#FFFFFF; stroke-width:0; stroke-opacity:1; 
stroke-linecap:round; stroke-linejoin:round;">
<circle cx="28750" cy="28750" r="68.8976" /> 
</g>
<g style="fill:#FFFFFF; fill-opacity:1.0; 
stroke:#FFFFFF; stroke-width:39.3701; stroke-opacity:1; 
stroke-linecap:round; stroke-linejoin:round;">
</g>
<g style="fill:#FFFFFF; fill-opacity:1.0; 
stroke:#FFFFFF; stroke-width:0; stroke-opacity:1; 
stroke-linecap:round; stroke-linejoin:round;">
<circle cx="63779.5" cy="37795.3" r="68.8976" /> 
</g>
<g style="fill:#FFFFFF; fill-opacity:1.0; 
stroke:#FFFFFF; stroke-width:39.3701; stroke-opacity:1; 
stroke-linecap:round; stroke-linejoin:round;">
</g>
<g style="fill:#FFFFFF; fill-opacity:1.0; 
stroke:#FFFFFF; stroke-width:0; stroke-opacity:1; 
stroke-linecap:round; stroke-linejoin:round;">
<circle cx="64779.5" cy="37795.3" r="68.8976" /> 
</g>
<g style="fill:#FFFFFF; fill-opacity:1.0; 
stroke:#FFFFFF; stroke-width:39.3701; stroke-opacity:1; 
stroke-linecap:round; stroke-linejoin:round;">
</g>
<g style="fill:#FFFFFF; fill-opacity:1.0; 
stroke:#FFFFFF; stroke-width:0; stroke-opacity:1; 
stroke-linecap:round; stroke-linejoin:round;">
<circle cx="65779.5" cy="37795.3" r="68.8976" /> 
</g>
<g style="fill:#FFFFFF; fill-opacity:1.0; 
stroke:#FFFFFF; stroke-width:39.3701; stroke-opacity:1; 
stroke-linecap:round; stroke-linejoin:round;">
</g>
<g style="fill:#FFFFFF; fill-opacity:1.0; 
stroke:#FFFFFF; stroke-width:0; stroke-opacity:1; 
stroke-linecap:round; stroke-linejoin:round;">
<circle cx="66779.5" cy="37795.3" r="68.8976" /> 
</g>
<g style="fill:#FFFFFF; fill-opacity:1.0; 
stroke:#FFFFFF; stroke-width:39.3701; stroke-opacity:1; 
stroke-linecap:round; stroke-linejoin:round;">
</g>
<g style="fill:#FFFFFF; fill-opacity:1.0; 
stroke:#FFFFFF; stroke-width:0; stroke-opacity:1; 
stroke-linecap:round; stroke-linejoin:round;">
<circle cx="67779.5" cy="37795.3" r="68.8976" /> 
</g>
<g style="fill:#FFFFFF; fill-opacity:1.0; 
stroke:#FFFFFF; stroke-width:39.3701; stroke-opacity:1; 
stroke-linecap:round; stroke-linejoin:round;">
</g>
<g style="fill:#FFFFFF; fill-opacity:1.0; 
stroke:#FFFFFF; stroke-width:0; stroke-opacity:1; 
stroke-linecap:round; stroke-linejoin:round;">
<circle cx="68779.5" cy="37795.3" r="68.8976" /> 
</g>
<g style="fill:#FFFFFF; fill-opacity:1.0; 
stroke:#FFFFFF; stroke-width:39.3701; stroke-opacity:1; 
stroke-linecap:round; stroke-linejoin:round;">
</g>
<g style="fill:#FFFFFF; fill-opacity:1.0; 
stroke:#FFFFFF; stroke-width:0; stroke-opacity:1; 
stroke-linecap:round; stroke-linejoin:round;">
<circle cx="65285.4" cy="40019.7" r="68.8976" /> 
</g>
<g style="fill:#FFFFFF; fill-opacity:1.0; 
stroke:#FFFFFF; stroke-width:39.3701; stroke-opacity:1; 
stroke-linecap:round; stroke-linejoin:round;">
</g>
<g style="fill:#FFFFFF; fill-opacity:1.0; 
stroke:#FFFFFF; stroke-width:0; stroke-opacity:1; 
stroke-linecap:round; stroke-linejoin:round;">
<circle cx="67785.4" cy="40019.7" r="68.8976" /> 
</g>
<g style="fill:#FFFFFF; fill-opacity:1.0; 
stroke:#FFFFFF; stroke-width:39.3701; stroke-opacity:1; 
stroke-linecap:round; stroke-linejoin:round;">
</g>
<g style="fill:#FFFFFF; fill-opacity:1.0; 
stroke:#FFFFFF; stroke-width:0; stroke-opacity:1; 
stroke-linecap:round; stroke-linejoin:round;">
<circle cx="67785.4" cy="45019.7" r="68.8976" /> 
</g>
<g style="fill:#FFFFFF; fill-opacity:1.0; 
stroke:#FFFFFF; stroke-width:39.3701; stroke-opacity:1; 
stroke-linecap:round; stroke-linejoin:round;">
</g>
<g style="fill:#FFFFFF; fill-opacity:1.0; 
stroke:#FFFFFF; stroke-width:0; stroke-opacity:1; 
stroke-linecap:round; stroke-linejoin:round;">
<circle cx="65285.4" cy="45019.7" r="68.8976" /> 
</g>
<g style="fill:#FFFFFF; fill-opacity:1.0; 
stroke:#FFFFFF; stroke-width:39.3701; stroke-opacity:1; 
stroke-linecap:round; stroke-linejoin:round;">
</g>
<g style="fill:#FFFFFF; fill-opacity:1.0; 
stroke:#FFFFFF; stroke-width:0; stroke-opacity:1; 
stroke-linecap:round; stroke-linejoin:round;">
<circle cx="69035.4" cy="42519.7" r="68.8976" /> 
</g>
<g style="fill:#FFFFFF; fill-opacity:1.0; 
stroke:#FFFFFF; stroke-width:39.3701; stroke-opacity:1; 
stroke-linecap:round; stroke-linejoin:round;">
</g>
<g style="fill:#FFFFFF; fill-opacity:1.0; 
stroke:#FFFFFF; stroke-width:0; stroke-opacity:1; 
stroke-linecap:round; stroke-linejoin:round;">
<circle cx="64035.4" cy="41519.7" r="68.8976" /> 
</g>
<g style="fill:#FFFFFF; fill-opacity:1.0; 
stroke:#FFFFFF; stroke-width:39.3701; stroke-opacity:1; 
stroke-linecap:round; stroke-linejoin:round;">
</g>
<g style="fill:#FFFFFF; fill-opacity:1.0; 
stroke:#FFFFFF; stroke-width:0; stroke-opacity:1; 
stroke-linecap:round; stroke-linejoin:round;">
<circle cx="31000" cy="41000" r="68.8976" /> 
</g>
<g style="fill:#FFFFFF; fill-opacity:1.0; 
stroke:#FFFFFF; stroke-width:39.3701; stroke-opacity:1; 
stroke-linecap:round; stroke-linejoin:round;">
</g>
<g style="fill:#FFFFFF; fill-opacity:1.0; 
stroke:#FFFFFF; stroke-width:0; stroke-opacity:1; 
stroke-linecap:round; stroke-linejoin:round;">
<circle cx="31000" cy="39000" r="68.8976" /> 
</g>
<g style="fill:#FFFFFF; fill-opacity:1.0; 
stroke:#FFFFFF; stroke-width:39.3701; stroke-opacity:1; 
stroke-linecap:round; stroke-linejoin:round;">
</g>
<g style="fill:#FFFFFF; fill-opacity:1.0; 
stroke:#FFFFFF; stroke-width:0; stroke-opacity:1; 
stroke-linecap:round; stroke-linejoin:round;">
<circle cx="34000" cy="41000" r="68.8976" /> 
</g>
<g style="fill:#FFFFFF; fill-opacity:1.0; 
stroke:#FFFFFF; stroke-width:39.3701; stroke-opacity:1; 
stroke-linecap:round; stroke-linejoin:round;">
</g>
<g style="fill:#FFFFFF; fill-opacity:1.0; 
stroke:#FFFFFF; stroke-width:0; stroke-opacity:1; 
stroke-linecap:round; stroke-linejoin:round;">
<circle cx="34000" cy="39000" r="68.8976" /> 
</g>
<g style="fill:#FFFFFF; fill-opacity:1.0; 
stroke:#FFFFFF; stroke-width:39.3701; stroke-opacity:1; 
stroke-linecap:round; stroke-linejoin:round;">
</g>
<g style="fill:#FFFFFF; fill-opacity:1.0; 
stroke:#FFFFFF; stroke-width:0; stroke-opacity:1; 
stroke-linecap:round; stroke-linejoin:round;">
<circle cx="26500" cy="41000" r="68.8976" /> 
</g>
<g style="fill:#FFFFFF; fill-opacity:1.0; 
stroke:#FFFFFF; stroke-width:39.3701; stroke-opacity:1; 
stroke-linecap:round; stroke-linejoin:round;">
</g>
<g style="fill:#FFFFFF; fill-opacity:1.0; 
stroke:#FFFFFF; stroke-width:0; stroke-opacity:1; 
stroke-linecap:round; stroke-linejoin:round;">
<circle cx="26500" cy="39000" r="68.8976" /> 
</g>
<g style="fill:#FFFFFF; fill-opacity:1.0; 
stroke:#FFFFFF; stroke-width:39.3701; stroke-opacity:1; 
stroke-linecap:round; stroke-linejoin:round;">
</g>
<g style="fill:#FFFFFF; fill-opacity:1.0; 
stroke:#FFFFFF; stroke-width:0; stroke-opacity:1; 
stroke-linecap:round; stroke-linejoin:round;">
<circle cx="29500" cy="41000" r="68.8976" /> 
</g>
<g style="fill:#FFFFFF; fill-opacity:1.0; 
stroke:#FFFFFF; stroke-width:39.3701; stroke-opacity:1; 
stroke-linecap:round; stroke-linejoin:round;">
</g>
<g style="fill:#FFFFFF; fill-opacity:1.0; 
stroke:#FFFFFF; stroke-width:0; stroke-opacity:1; 
stroke-linecap:round; stroke-linejoin:round;">
<circle cx="29500" cy="39000" r="68.8976" /> 
</g>
<g style="fill:#FFFFFF; fill-opacity:1.0; 
stroke:#FFFFFF; stroke-width:39.3701; stroke-opacity:1; 
stroke-linecap:round; stroke-linejoin:round;">
</g>
<g style="fill:#FFFFFF; fill-opacity:1.0; 
stroke:#FFFFFF; stroke-width:0; stroke-opacity:1; 
stroke-linecap:round; stroke-linejoin:round;">
<circle cx="22000" cy="41000" r="68.8976" /> 
</g>
<g style="fill:#FFFFFF; fill-opacity:1.0; 
stroke:#FFFFFF; stroke-width:39.3701; stroke-opacity:1; 
stroke-linecap:round; stroke-linejoin:round;">
</g>
<g style="fill:#FFFFFF; fill-opacity:1.0; 
stroke:#FFFFFF; stroke-width:0; stroke-opacity:1; 
stroke-linecap:round; stroke-linejoin:round;">
<circle cx="22000" cy="39000" r="68.8976" /> 
</g>
<g style="fill:#FFFFFF; fill-opacity:1.0; 
stroke:#FFFFFF; stroke-width:39.3701; stroke-opacity:1; 
stroke-linecap:round; stroke-linejoin:round;">
</g>
<g style="fill:#FFFFFF; fill-opacity:1.0; 
stroke:#FFFFFF; stroke-width:0; stroke-opacity:1; 
stroke-linecap:round; stroke-linejoin:round;">
<circle cx="25000" cy="41000" r="68.8976" /> 
</g>
<g style="fill:#FFFFFF; fill-opacity:1.0; 
stroke:#FFFFFF; stroke-width:39.3701; stroke-opacity:1; 
stroke-linecap:round; stroke-linejoin:round;">
</g>
<g style="fill:#FFFFFF; fill-opacity:1.0; 
stroke:#FFFFFF; stroke-width:0; stroke-opacity:1; 
stroke-linecap:round; stroke-linejoin:round;">
<circle cx="25000" cy="39000" r="68.8976" /> 
</g>
<g style="fill:#FFFFFF; fill-opacity:1.0; 
stroke:#FFFFFF; stroke-width:39.3701; stroke-opacity:1; 
stroke-linecap:round; stroke-linejoin:round;">
</g>
<g style="fill:#000000; fill-opacity:1.0; 
stroke:#000000; stroke-width:39.3701; stroke-opacity:1; 
stroke-linecap:round; stroke-linejoin:round;">
</g> 
</svg>
